<?xml version="1.0" encoding="UTF-8" standalone="no"?>
<!-- Created with Inkscape (http://www.inkscape.org/) -->

<svg
   width="103.0088mm"
   height="34.115406mm"
   viewBox="0 0 103.0088 34.115406"
   version="1.1"
   id="svg1"
   inkscape:version="1.3.2 (091e20e, 2023-11-25, custom)"
   sodipodi:docname="logo-game.svg"
   inkscape:export-filename="logo-game.png"
   inkscape:export-xdpi="98.632355"
   inkscape:export-ydpi="98.632355"
   xmlns:inkscape="http://www.inkscape.org/namespaces/inkscape"
   xmlns:sodipodi="http://sodipodi.sourceforge.net/DTD/sodipodi-0.dtd"
   xmlns:xlink="http://www.w3.org/1999/xlink"
   xmlns="http://www.w3.org/2000/svg"
   xmlns:svg="http://www.w3.org/2000/svg">
  <sodipodi:namedview
     id="namedview1"
     pagecolor="#ffffff"
     bordercolor="#000000"
     borderopacity="0.25"
     inkscape:showpageshadow="2"
     inkscape:pageopacity="0.0"
     inkscape:pagecheckerboard="0"
     inkscape:deskcolor="#d1d1d1"
     inkscape:document-units="mm"
     inkscape:zoom="1.3380612"
     inkscape:cx="138.63342"
     inkscape:cy="139.38077"
     inkscape:window-width="1920"
     inkscape:window-height="986"
     inkscape:window-x="-11"
     inkscape:window-y="-11"
     inkscape:window-maximized="1"
     inkscape:current-layer="layer1" />
  <defs
     id="defs1">
    <linearGradient
       inkscape:collect="always"
       xlink:href="#linearGradient15"
       id="linearGradient16"
       x1="52.217087"
       y1="117.41776"
       x2="73.776985"
       y2="170.53529"
       gradientUnits="userSpaceOnUse"
       spreadMethod="repeat" />
    <linearGradient
       id="linearGradient15"
       inkscape:collect="always">
      <stop
         style="stop-color:#ff0000;stop-opacity:1;"
         offset="0"
         id="stop15" />
      <stop
         style="stop-color:#ff8b0e;stop-opacity:1;"
         offset="0.61347765"
         id="stop16" />
    </linearGradient>
    <filter
       style="color-interpolation-filters:sRGB"
       inkscape:label="Drop Shadow"
       id="filter46"
       x="-0.062540681"
       y="-0.27710736"
       width="1.1250813"
       height="1.6509893">
      <feFlood
         result="flood"
         in="SourceGraphic"
         flood-opacity="0.717647"
         flood-color="rgb(0,0,0)"
         id="feFlood45" />
      <feGaussianBlur
         result="blur"
         in="SourceGraphic"
         stdDeviation="2.000000"
         id="feGaussianBlur45" />
      <feOffset
         result="offset"
         in="blur"
         dx="0.000000"
         dy="2.000000"
         id="feOffset45" />
      <feComposite
         result="comp1"
         operator="in"
         in="flood"
         in2="offset"
         id="feComposite45" />
      <feComposite
         result="comp2"
         operator="over"
         in="SourceGraphic"
         in2="comp1"
         id="feComposite46" />
    </filter>
    <inkscape:path-effect
       effect="perspective-envelope"
       up_left_point="23.813513,129.45227"
       up_right_point="116.06512,129.59209"
       down_left_point="27.448852,150.54062"
       down_right_point="113.54835,150.54062"
       id="path-effect13"
       is_visible="true"
       lpeversion="1"
       deform_type="envelope_deformation"
       horizontal_mirror="false"
       vertical_mirror="false"
       overflow_perspective="false" />
    <inkscape:path-effect
       effect="lattice2"
       gridpoint0="23.886783,129.4767"
       gridpoint1="115.44355,129.4767"
       gridpoint2="23.886783,150.54062"
       gridpoint3="115.44355,150.54062"
       gridpoint4="46.775974,129.4767"
       gridpoint5="92.554356,129.4767"
       gridpoint6="46.775974,150.54062"
       gridpoint7="92.554356,150.54062"
       gridpoint8x9="70.498602,138.14558"
       gridpoint10x11="69.665165,150.54062"
       gridpoint12="23.886783,134.74268"
       gridpoint13="115.44355,134.74268"
       gridpoint14="23.886783,145.27464"
       gridpoint15="115.44355,145.27464"
       gridpoint16="46.775974,134.74268"
       gridpoint17="92.554356,134.74268"
       gridpoint18="46.775974,145.27464"
       gridpoint19="92.554356,145.27464"
       gridpoint20x21="69.665165,134.74268"
       gridpoint22x23="69.665165,145.27464"
       gridpoint24x26="23.886783,140.00866"
       gridpoint25x27="115.44355,140.00866"
       gridpoint28x30="46.775974,140.00866"
       gridpoint29x31="92.554356,140.00866"
       gridpoint32x33x34x35="69.665165,140.00866"
       id="path-effect14"
       is_visible="true"
       lpeversion="1"
       horizontal_mirror="false"
       vertical_mirror="false"
       perimetral="false"
       live_update="true" />
  </defs>
  <g
     inkscape:label="Ebene 1"
     inkscape:groupmode="layer"
     id="layer1"
     transform="translate(-35.875852,-26.860346)">
    <path
       id="path3-6"
       style="font-size:7.05556px;line-height:0.8;font-family:Impact;-inkscape-font-specification:Impact;text-align:center;text-anchor:middle;fill:url(#linearGradient16);stroke:#ffffff;stroke-width:1.85208;stroke-linecap:round;stroke-linejoin:round;stroke-miterlimit:4;stroke-dasharray:none;stroke-opacity:1;paint-order:stroke markers fill;filter:url(#filter46)"
       d="m 56.848488,144.22374 c 0.02515,0.4257 0.07519,1.27427 0.07519,1.27427 -0.293325,-0.0212 -0.879965,-0.0655 -0.879965,-0.0655 0.109522,1.71775 0.324258,5.1081 0.324258,5.1081 -0.477995,0 -1.433694,0 -1.433694,0 -0.122803,-1.72563 -0.37315,-5.22592 -0.37315,-5.22592 -0.292436,-0.0241 -0.877275,-0.0738 -0.877275,-0.0738 -0.03401,-0.44665 -0.102351,-1.34319 -0.102351,-1.34319 1.090839,0.11763 2.17791,0.22673 3.26699,0.32608 z m 3.771118,0.30195 c 0.07565,2.01845 0.223116,6.01493 0.223116,6.01493 -0.477994,0 -1.433693,0 -1.433693,0 -0.03865,-0.85095 -0.116722,-2.56052 -0.116722,-2.56052 -0.145471,-0.005 -0.43635,-0.0142 -0.43635,-0.0142 0.04162,0.86133 0.123987,2.57468 0.123987,2.57468 -0.477994,0 -1.433694,0 -1.433694,0 -0.117166,-2.07588 -0.357174,-6.28614 -0.357174,-6.28614 0.497926,0.0445 1.492852,0.12685 1.492852,0.12685 0.03612,0.7405 0.107701,2.2144 0.107701,2.2144 0.146787,0.007 0.440236,0.0221 0.440236,0.0221 -0.03361,-0.73177 -0.101396,-2.20111 -0.101396,-2.20111 0.497348,0.0387 0.994244,0.0751 1.491137,0.10901 z m 0.59819,0.0397 c 0.828271,0.0533 2.482293,0.13894 2.482293,0.13894 0.0074,0.39091 0.02211,1.17156 0.02211,1.17156 -0.328582,-0.0123 -0.985812,-0.0396 -0.985812,-0.0396 0.0093,0.37319 0.02769,1.11836 0.02769,1.11836 0.305524,0.01 0.916215,0.0279 0.916215,0.0279 0.0071,0.37067 0.02114,1.11096 0.02114,1.11096 -0.303275,-0.006 -0.909762,-0.0188 -0.909762,-0.0188 0.0106,0.43123 0.03166,1.29216 0.03166,1.29216 0.353483,0.004 1.060158,0.0102 1.060158,0.0102 0.0069,0.38824 0.02073,1.16364 0.02073,1.16364 -0.828825,0 -2.485975,0 -2.485975,0 0.0016,0.0483 -0.202048,-6.02353 -0.200446,-5.97523 z m -2.362192,-3.6967 c 0.02964,0.62676 0.03612,1.06836 0.01971,1.32649 -0.01406,0.25584 -0.08886,0.48366 -0.224036,0.68454 -0.132422,0.20109 -0.318337,0.3482 -0.55742,0.44047 -0.238723,0.0923 -0.521104,0.12318 -0.84671,0.0903 -0.30915,-0.0313 -0.590644,-0.11532 -0.845052,-0.25364 -0.252462,-0.14075 -0.461122,-0.33399 -0.626289,-0.58014 -0.165458,-0.24612 -0.271684,-0.50714 -0.318303,-0.78108 -0.04669,-0.27394 -0.09248,-0.74921 -0.137565,-1.42819 -0.02498,-0.37625 -0.07515,-1.13076 -0.07515,-1.13076 -0.04427,-0.66555 -0.06224,-1.13531 -0.05357,-1.40663 0.01103,-0.27359 0.08299,-0.51059 0.216263,-0.70966 0.136146,-0.19861 0.32789,-0.3316 0.57567,-0.4005 0.248145,-0.0688 0.541939,-0.0674 0.881881,8.6e-4 0.322318,0.0647 0.614366,0.17823 0.875323,0.33936 0.263068,0.15886 0.477911,0.36235 0.644314,0.6106 0.166108,0.24825 0.269885,0.50298 0.311753,0.76652 0.04178,0.2635 0.078,0.71816 0.108557,1.36237 4.5e-5,9.6e-4 0.05058,1.06818 0.05062,1.06913 z m -1.644576,-2.30796 c -0.01675,-0.29902 -0.04344,-0.49271 -0.08004,-0.58071 -0.03431,-0.0902 -0.09952,-0.14417 -0.195589,-0.16185 -0.0813,-0.015 -0.142082,0.008 -0.182378,0.0692 -0.03796,0.0589 -0.04712,0.25551 -0.02758,0.58902 0.05908,1.0083 0.175827,3.00985 0.175827,3.00985 0.02169,0.37246 0.04822,0.60336 0.07962,0.69346 0.03379,0.0904 0.100929,0.14142 0.201493,0.15318 0.102928,0.012 0.166008,-0.0302 0.18918,-0.12628 0.02321,-0.0961 0.02444,-0.33125 0.0036,-0.70615 3.53e-4,0.006 -0.164465,-2.94608 -0.164112,-2.93972 z m 2.052162,-1.26307 c 0.881045,0.14939 2.638088,0.40108 2.638088,0.40108 0.01186,0.40225 0.03543,1.2051 0.03543,1.2051 -0.356893,-0.0429 -1.071176,-0.13617 -1.071176,-0.13617 0.01371,0.38541 0.04097,1.15454 0.04097,1.15454 0.315912,0.0379 0.947047,0.10835 0.947047,0.10835 0.01139,0.3812 0.03403,1.14213 0.03403,1.14213 -0.313332,-0.0302 -0.940254,-0.0951 -0.940254,-0.0951 0.02995,0.8494 0.08916,2.54083 0.08916,2.54083 -0.499744,-0.038 -1.499746,-0.12259 -1.499746,-0.12259 0.0015,0.034 -0.275027,-6.23222 -0.273539,-6.19819 z m 6.078951,0.9086 c 1.084336,0.089 3.244449,0.18456 3.244449,0.18456 0.87684,0.0275 1.542473,0.0966 2.007834,0.22848 0.468366,0.13146 0.814492,0.31631 1.04038,0.56182 0.230075,0.24519 0.379851,0.54448 0.449832,0.89987 0.0748,0.35025 0.100944,0.89734 0.07869,1.6414 -0.01033,0.34516 -0.03096,1.03537 -0.03096,1.03537 -0.02268,0.7589 -0.117749,1.31374 -0.284883,1.66347 -0.166499,0.34968 -0.462251,0.62 -0.887159,0.8084 -0.418894,0.18825 -0.965408,0.28286 -1.638821,0.27953 -0.275885,-0.001 -0.827711,-0.006 -0.827711,-0.006 -0.01587,1.59729 -0.04785,4.78828 -0.04785,4.78828 -0.999897,-4.3e-4 -2.999235,-0.003 -2.999235,-0.003 0.0023,0.28261 -0.106875,-12.36464 -0.104563,-12.08202 z m 3.201676,2.22285 c -0.0099,1.01078 -0.02979,3.03036 -0.02979,3.03036 0.0889,0.007 0.16552,0.01 0.229738,0.0106 0.286548,0.004 0.485198,-0.063 0.595842,-0.19903 0.115888,-0.14092 0.17733,-0.43162 0.184187,-0.8718 0.0051,-0.32535 0.0152,-0.97592 0.0152,-0.97592 0.0063,-0.40607 -0.05476,-0.67085 -0.183404,-0.79498 -0.129,-0.12431 -0.399157,-0.18911 -0.811772,-0.19937 0,0 -2e-6,1.2e-4 -2e-6,1.2e-4 z m 11.932756,-2.7994 c -0.27052,4.22065 -0.812726,12.64564 -0.812726,12.64564 -0.999553,0.003 -2.998188,0.008 -2.998188,0.008 0.0905,-1.71478 0.271658,-5.14113 0.271658,-5.14113 -0.306443,0.0144 -0.919414,0.0405 -0.919414,0.0405 -0.08331,1.7002 -0.249617,5.10248 -0.249617,5.10248 -0.999666,0.002 -2.998538,0.004 -2.998538,0.004 0.136423,-3.98167 0.410853,-11.9252 0.410853,-11.9252 1.063781,-0.0457 3.182895,-0.2182 3.182895,-0.2182 -0.07115,1.44544 -0.21322,4.33749 -0.21322,4.33749 0.310544,-0.0191 0.931027,-0.0616 0.931027,-0.0616 0.07724,-1.4582 0.231816,-4.37217 0.231816,-4.37217 1.057621,-0.1151 2.110597,-0.25576 3.163454,-0.42041 z m 7.739857,6.68678 c -0.120418,1.44327 -0.234863,2.46392 -0.342976,3.06669 -0.102521,0.5967 -0.319776,1.14648 -0.652067,1.64215 -0.326397,0.4959 -0.744195,0.87176 -1.255143,1.13114 -0.509735,0.25938 -1.088545,0.38415 -1.73858,0.38415 -0.616037,0 -1.163354,-0.11611 -1.639428,-0.34047 -0.472415,-0.22997 -0.842962,-0.56919 -1.110767,-1.01562 -0.269412,-0.44671 -0.414881,-0.93025 -0.436165,-1.45653 -0.02163,-0.52674 0.01245,-1.44837 0.102155,-2.76937 0.0497,-0.73191 0.148999,-2.1961 0.148999,-2.1961 0.08743,-1.28971 0.176414,-2.20641 0.266897,-2.74881 0.09616,-0.54878 0.308416,-1.06768 0.636806,-1.56574 0.334507,-0.49881 0.767318,-0.91933 1.296854,-1.26485 0.53023,-0.3454 1.138065,-0.59732 1.818626,-0.75004 0.646979,-0.14519 1.21483,-0.16125 1.707086,-0.0338 0.496301,0.12071 0.879094,0.39279 1.150686,0.82404 0.269824,0.43094 0.409952,0.94212 0.420356,1.52572 0.01007,0.58239 -0.046,1.62213 -0.168779,3.10566 -9.3e-5,0.001 -0.204468,2.46064 -0.20456,2.46176 z m -2.705867,-4.18223 c 0.04922,-0.63723 0.04845,-1.03796 -0.0021,-1.20065 -0.04541,-0.16951 -0.164242,-0.23529 -0.356802,-0.19933 -0.162868,0.0304 -0.294318,0.12625 -0.394084,0.28689 -0.09429,0.1541 -0.167586,0.57817 -0.219791,1.27129 -0.157964,2.09725 -0.475409,6.27377 -0.475409,6.27377 -0.0593,0.77792 -0.06968,1.25603 -0.03091,1.43623 0.04339,0.1797 0.16556,0.26669 0.366333,0.25964 0.205654,-0.007 0.345313,-0.11757 0.419389,-0.33235 0.07418,-0.21472 0.14265,-0.72204 0.20544,-1.5234 -5.94e-4,0.008 0.48857,-6.27966 0.487976,-6.27209 z m 4.56776,-4.58612 c 1.734843,-0.46177 5.20185,-1.46115 5.20185,-1.46115 -0.09466,1.09531 -0.285065,3.27344 -0.285065,3.27344 -0.688485,0.15967 -2.065462,0.47452 -2.065462,0.47452 -0.0855,0.99157 -0.257314,2.96503 -0.257314,2.96503 0.640005,-0.1108 1.919236,-0.33642 1.919236,-0.33642 -0.09107,1.02417 -0.274171,3.06135 -0.274171,3.06135 -0.635039,0.078 -1.904964,0.23158 -1.904964,0.23158 -0.100492,1.13582 -0.302577,3.39469 -0.302577,3.39469 0.739655,-0.0441 2.218328,-0.13431 2.218328,-0.13431 -0.09823,1.06763 -0.295785,3.19034 -0.295785,3.19034 -1.732755,0.01 -5.197338,0.0289 -5.197338,0.0289 0.420402,-4.83723 0.834573,-9.72895 1.243262,-14.68792 z m 13.271087,-3.73095 c -0.57531,6.24728 -1.7632,18.34677 -1.7632,18.34677 -0.8759,0.005 -2.627135,0.0147 -2.627135,0.0147 -0.279935,-2.61096 -0.828013,-7.71043 -0.828013,-7.71043 -0.241378,2.59852 -0.731161,7.71943 -0.731161,7.71943 -0.835517,0.005 -2.506045,0.0146 -2.506045,0.0146 0.506676,-5.37459 1.489373,-16.43619 1.489373,-16.43619 0.868773,-0.25305 2.606165,-0.75519 2.606165,-0.75519 0.332467,2.46988 1.011086,7.55253 1.011086,7.55253 0.2483,-2.65724 0.73739,-8.04678 0.73739,-8.04678 0.86893,-0.24148 1.74081,-0.47661 2.61154,-0.6994 z m 4.39404,-0.99792 c -0.64104,6.55937 -1.95644,19.32367 -1.95644,19.32367 -0.99942,0.004 -2.99755,0.0146 -2.99755,0.0146 0.6184,-6.08426 1.81602,-18.65284 1.81602,-18.65284 1.04304,-0.25162 2.09015,-0.48348 3.13797,-0.68545 z m 7.7001,-0.80583 c -0.71346,2.96522 -2.13528,8.93034 -2.13528,8.93034 0.0967,3.72253 0.29091,11.17572 0.29091,11.17572 -0.92613,0.001 -2.77763,0.005 -2.77763,0.005 -0.11005,-1.97374 -0.14746,-4.36989 -0.1138,-7.19932 -0.21462,1.25647 -0.46668,2.59001 -0.75544,3.9913 -0.21307,1.07595 -0.64051,3.21244 -0.64051,3.21244 -0.97343,0.003 -2.91954,0.0111 -2.91954,0.0111 0.75062,-3.54785 2.2292,-10.87248 2.2292,-10.87248 -0.0815,-2.86345 -0.24256,-8.56725 -0.24256,-8.56725 1.01501,-0.18353 3.05377,-0.45324 3.05377,-0.45324 -0.003,0.54862 0.009,1.45997 0.0364,2.73422 0.0241,0.97187 0.034,1.86353 0.0299,2.67447 0.42283,-1.83754 1.26831,-5.53685 1.26831,-5.53685 0.88857,-0.0696 1.78084,-0.10703 2.67622,-0.1057 z m -91.556767,-0.13615 c 0.756201,0.001 2.275783,0.0828 2.275783,0.0828 1.506073,0.10432 2.590643,0.36169 3.143847,0.62285 0.574144,0.26951 1.091867,0.83268 1.549989,1.67186 0.460364,0.83159 0.81811,2.09821 1.072899,3.78647 0.232622,1.54137 0.270744,2.55445 0.116214,3.05536 -0.153585,0.50063 -0.565114,0.7683 -1.233483,0.81074 0.659047,0.31139 1.12865,0.69176 1.405451,1.13155 0.276733,0.44056 0.466332,0.83835 0.569319,1.19561 0.106659,0.34997 0.279083,1.31001 0.516482,2.86739 0.25848,1.69568 0.770982,5.04126 0.770982,5.04126 -0.929029,-0.004 -2.786416,-0.012 -2.786416,-0.012 -0.349156,-2.16143 -1.053101,-6.54377 -1.053101,-6.54377 -0.170548,-1.06347 -0.328072,-1.72871 -0.472286,-1.99087 -0.139247,-0.26144 -0.4239,-0.40882 -0.852239,-0.43604 0.491451,3.01937 1.465504,8.96734 1.465504,8.96734 -1.000191,-0.003 -2.999781,-0.008 -2.999781,-0.008 -0.706076,-4.08045 -2.783087,-16.16162 -3.489164,-20.24207 z m 3.783043,3.64277 c 0.244036,1.50644 0.730699,4.5053 0.730699,4.5053 0.35384,0.0273 0.587921,-0.0301 0.702455,-0.17529 0.11828,-0.15315 0.106805,-0.6721 -0.03482,-1.56067 -0.05893,-0.36973 -0.176859,-1.11005 -0.176859,-1.11005 -0.102048,-0.64074 -0.239971,-1.06969 -0.413656,-1.2847 -0.168596,-0.21425 -0.438501,-0.34135 -0.807819,-0.37459 z m 7.97649,-1.96128 c -0.106513,-0.77331 1.740774,12.56238 1.634261,11.78908 0.53635,3.84235 0.955863,6.81692 0.955863,6.81692 -1.000392,-0.006 -3.000502,-0.016 -3.000502,-0.016 -0.933947,-6.22492 -2.863271,-19.3158 -2.863271,-19.3158 1.08804,0.21714 2.181171,0.46246 3.273649,0.72575 z m 8.864433,7.32079 c -0.991688,-0.19592 -2.974489,-0.58784 -2.974489,-0.58784 -0.0534,-0.43329 -0.16052,-1.30326 -0.16052,-1.30326 -0.07507,-0.60985 -0.16156,-1.00909 -0.259278,-1.19516 -0.09777,-0.186 -0.236847,-0.30102 -0.416771,-0.34342 -0.195455,-0.0461 -0.33006,0.0333 -0.403948,0.23934 -0.06854,0.20712 -0.07319,0.54478 -0.01431,1.01031 0.0757,0.59849 0.188377,1.05846 0.337958,1.38065 0.144061,0.32068 0.490894,0.74124 1.037213,1.24751 1.560854,1.45707 2.550824,2.51427 2.999574,3.29299 0.444599,0.77486 0.754932,1.94956 0.932486,3.5233 0.128945,1.14288 0.124554,1.97227 -0.01106,2.50429 -0.129781,0.53162 -0.450095,0.97722 -0.958462,1.34432 -0.506822,0.36007 -1.126072,0.54802 -1.855525,0.54802 -0.802036,0 -1.515056,-0.21989 -2.146422,-0.68197 -0.628186,-0.46174 -1.080363,-1.05976 -1.356404,-1.78988 -0.276805,-0.72958 -0.507682,-1.76834 -0.69246,-3.12128 -0.05381,-0.39396 -0.161675,-1.18466 -0.161675,-1.18466 0.960557,0.0959 2.881851,0.29551 2.881851,0.29551 0.08957,0.704 0.267677,2.10143 0.267677,2.10143 0.08213,0.64402 0.173356,1.0578 0.273876,1.24437 0.105297,0.18692 0.258882,0.28427 0.461327,0.29384 0.20232,0.01 0.337588,-0.098 0.405608,-0.32123 0.0731,-0.2231 0.08198,-0.55865 0.02626,-1.00952 -0.122588,-0.99188 -0.298894,-1.65554 -0.528582,-1.98453 -0.237856,-0.33345 -0.782261,-0.89427 -1.656139,-1.74064 -0.87243,-0.84767 -1.472845,-1.49574 -1.769686,-1.87877 -0.301804,-0.3887 -0.580238,-0.91018 -0.835976,-1.56846 -0.251437,-0.65753 -0.444697,-1.48286 -0.579259,-2.47569 -0.194121,-1.43226 -0.216172,-2.46373 -0.06359,-3.07355 0.159002,-0.60892 0.488947,-1.02936 0.991661,-1.25417 0.503875,-0.23245 1.145934,-0.23489 1.929878,-0.0168 0.855044,0.23783 1.609128,0.64237 2.252673,1.18801 0.647853,0.54725 1.10014,1.12742 1.35618,1.74315 0.259909,0.6106 0.465173,1.58442 0.615587,2.91348 2e-6,2e-5 0.07475,0.66034 0.07475,0.66035 z m 0.728783,-4.74176 c 1.829981,0.50808 5.483517,1.46855 5.483517,1.46855 0.08761,1.00705 0.26098,3.00187 0.26098,3.00187 -0.717812,-0.14538 -2.154231,-0.44879 -2.154231,-0.44879 0.09416,0.98019 0.280616,2.92128 0.280616,2.92128 0.661063,0.10824 1.982028,0.31668 1.982028,0.31668 0.08186,0.93675 0.243944,2.79315 0.243944,2.79315 -0.649276,-0.0701 -1.94803,-0.21635 -1.94803,-0.21635 0.10642,1.10788 0.316837,3.29844 0.316837,3.29844 0.747983,0.0425 2.243109,0.12343 2.243109,0.12343 0.08171,0.95517 0.24343,2.8477 0.24343,2.8477 -1.734551,-0.009 -5.202817,-0.0281 -5.202817,-0.0281 0.0045,0.0408 -1.753837,-16.1186 -1.749383,-16.07784 z"
       inkscape:path-effect="#path-effect13;#path-effect14"
       inkscape:original-d="m 57.219325,145.0272 v 1.10337 h -0.851361 v 4.41005 h -1.433692 v -4.41005 h -0.847956 v -1.10337 z m 3.623393,0 v 5.51342 h -1.433692 v -2.31571 H 58.97994 v 2.31571 h -1.433692 v -5.51342 h 1.433692 v 1.97175 h 0.429086 v -1.97175 z m 0.575521,0 h 2.390623 v 1.10337 h -0.956931 v 1.04547 h 0.895632 v 1.04887 h -0.895632 v 1.21234 h 1.052282 v 1.10337 h -2.485974 z m -2.111376,-3.14244 c 0,0.55395 -0.01362,0.94672 -0.04086,1.17829 -0.02497,0.2293 -0.106704,0.4393 -0.245192,0.63 -0.136218,0.19071 -0.321247,0.33714 -0.555088,0.43931 -0.233841,0.10216 -0.506276,0.15324 -0.817306,0.15324 -0.295139,0 -0.560763,-0.0477 -0.796874,-0.14303 -0.233841,-0.0976 -0.422275,-0.24292 -0.565304,-0.4359 -0.143029,-0.19297 -0.228166,-0.40297 -0.255409,-0.63 -0.02724,-0.22703 -0.04086,-0.62434 -0.04086,-1.19191 v -0.94331 c 0,-0.55395 0.01249,-0.94557 0.03746,-1.17487 0.02725,-0.23157 0.108977,-0.44271 0.245192,-0.63342 0.138489,-0.19071 0.324653,-0.33714 0.558493,-0.4393 0.233841,-0.10216 0.506277,-0.15324 0.817308,-0.15324 0.295138,0 0.559627,0.0488 0.793468,0.14643 0.236111,0.0953 0.425681,0.23952 0.568709,0.43249 0.143029,0.19297 0.228165,0.40298 0.255409,0.63001 0.02724,0.22703 0.04086,0.62433 0.04086,1.1919 z m -1.433692,-1.81169 c 0,-0.25655 -0.01476,-0.42001 -0.04427,-0.49039 -0.02724,-0.0727 -0.08513,-0.10897 -0.173678,-0.10897 -0.07492,0 -0.132812,0.0295 -0.173677,0.0885 -0.0386,0.0567 -0.0579,0.227 -0.0579,0.51081 v 2.57452 c 0,0.32011 0.01249,0.51763 0.03746,0.59255 0.02724,0.0749 0.08854,0.11238 0.183894,0.11238 0.09762,0 0.160056,-0.0431 0.1873,-0.12941 0.02724,-0.0863 0.04086,-0.29174 0.04086,-0.61639 z m 1.968347,-1.41667 H 62.2696 v 1.10336 h -0.99439 v 1.04548 h 0.885416 v 1.04887 H 61.27521 v 2.3157 h -1.433692 z m 5.607244,0.12607 h 3.016005 c 0.815649,0 1.441613,0.064 1.87789,0.19206 0.441019,0.12803 0.770598,0.31298 0.988737,0.55483 0.222881,0.24185 0.372258,0.53586 0.448133,0.88204 0.08062,0.34143 0.120925,0.87255 0.120925,1.59336 v 1.00296 c 0,0.73503 -0.07587,1.2709 -0.227623,1.60759 -0.151749,0.33669 -0.431535,0.59514 -0.83936,0.77534 -0.403083,0.1802 -0.931833,0.2703 -1.586249,0.2703 h -0.803793 v 4.63782 h -2.994665 z m 2.994665,1.97036 v 2.93065 c 0.08536,0.005 0.158863,0.007 0.22051,0.007 0.275045,0 0.464731,-0.0664 0.569058,-0.19917 0.109069,-0.13753 0.163603,-0.41969 0.163603,-0.84648 v -0.94605 c 0,-0.3936 -0.06165,-0.64968 -0.184944,-0.76823 -0.123295,-0.11855 -0.37937,-0.17783 -0.768227,-0.17783 z m 11.203319,-1.97036 v 11.5163 h -2.994664 v -4.83699 h -0.896267 v 4.83699 h -2.994664 v -11.5163 h 2.994664 v 4.11855 h 0.896267 v -4.11855 z m 8.045051,6.74333 c 0,1.15709 -0.02845,1.97748 -0.08536,2.46117 -0.05216,0.47896 -0.222877,0.91761 -0.512151,1.31595 -0.284529,0.39834 -0.671013,0.70421 -1.159454,0.91761 -0.488442,0.21339 -1.0575,0.32009 -1.707173,0.32009 -0.616479,0 -1.171311,-0.0996 -1.664494,-0.29875 -0.488441,-0.20391 -0.882039,-0.50741 -1.180794,-0.9105 -0.298755,-0.40308 -0.476586,-0.84173 -0.533491,-1.31594 -0.05691,-0.47421 -0.08536,-1.30409 -0.08536,-2.48963 v -1.97036 c 0,-1.15709 0.02608,-1.97511 0.07824,-2.45406 0.05691,-0.4837 0.227624,-0.92472 0.512152,-1.32306 0.289271,-0.39834 0.678127,-0.70421 1.166568,-0.91761 0.488441,-0.21339 1.057498,-0.32009 1.707172,-0.32009 0.616479,0 1.168939,0.10196 1.65738,0.30587 0.493184,0.19917 0.889153,0.50029 1.187908,0.90338 0.298755,0.40308 0.476586,0.84173 0.533491,1.31594 0.05691,0.47421 0.08536,1.30409 0.08536,2.48963 z m -2.994665,-3.78423 c 0,-0.53587 -0.03082,-0.8773 -0.09247,-1.02431 -0.05691,-0.15175 -0.177831,-0.22762 -0.362773,-0.22762 -0.156491,0 -0.277415,0.0616 -0.362774,0.18495 -0.08062,0.11855 -0.120924,0.47421 -0.120924,1.06698 v 5.37759 c 0,0.66865 0.02608,1.08121 0.07824,1.2377 0.05691,0.15649 0.184945,0.23474 0.384114,0.23474 0.203912,0 0.334321,-0.0901 0.391226,-0.2703 0.05691,-0.18021 0.08536,-0.60937 0.08536,-1.2875 z m 4.11144,-2.9591 h 4.99348 v 2.30468 h -1.998815 v 2.18376 h 1.870777 v 2.19087 h -1.870777 v 2.53231 h 2.197985 v 2.30468 h -5.19265 z m 12.739778,0 v 11.5163 h -2.624778 l -1.5578,-5.23533 v 5.23533 h -2.50385 v -11.5163 h 2.50385 l 1.67872,5.18554 v -5.18554 z m 4.19679,0 v 11.5163 h -2.99466 v -11.5163 z m 7.26971,0 -1.04563,5.09306 1.57913,6.42324 h -2.77415 c -0.33195,-1.1476 -0.63545,-2.54416 -0.9105,-4.18969 -0.0759,0.72555 -0.1802,1.49615 -0.31298,2.3118 l -0.28453,1.87789 h -2.91642 l 1.08121,-6.42324 -1.08121,-5.09306 h 2.89509 c 0.0521,0.31772 0.15646,0.84647 0.31297,1.58625 0.1233,0.56431 0.22526,1.08121 0.30587,1.55068 l 0.64019,-3.13693 z m -85.565996,0 h 2.119739 c 1.413159,0 2.368702,0.0545 2.866627,0.1636 0.502667,0.10907 0.910492,0.38886 1.223474,0.83936 0.317723,0.44577 0.476584,1.15946 0.476584,2.14108 0,0.89627 -0.11144,1.49852 -0.33432,1.80676 -0.222881,0.30824 -0.661529,0.49318 -1.315945,0.55483 0.592768,0.14701 0.991108,0.34381 1.195019,0.5904 0.203913,0.24659 0.329581,0.47422 0.377002,0.68287 0.05216,0.20391 0.07824,0.7706 0.07824,1.70006 v 3.03734 h -2.781266 v -3.82691 c 0,-0.61648 -0.04979,-0.99822 -0.149377,-1.14523 -0.09484,-0.14701 -0.348549,-0.22051 -0.761116,-0.22051 v 5.19265 h -2.994663 z m 2.994664,1.97036 v 2.56076 c 0.336693,0 0.571429,-0.0451 0.704209,-0.13515 0.137523,-0.0949 0.206284,-0.39597 0.206284,-0.90338 v -0.63308 c 0,-0.36514 -0.06639,-0.60462 -0.19917,-0.71843 -0.128038,-0.11381 -0.365146,-0.17072 -0.711323,-0.17072 z m 7.845882,-1.97036 v 11.5163 h -2.994665 v -11.5163 z m 7.547124,3.48548 h -2.781268 v -0.85359 c 0,-0.39834 -0.03557,-0.65204 -0.106698,-0.76111 -0.07113,-0.10907 -0.189685,-0.16361 -0.35566,-0.16361 -0.180202,0 -0.317724,0.0735 -0.412567,0.22051 -0.0901,0.14701 -0.135152,0.36989 -0.135152,0.66864 0,0.38412 0.05216,0.67339 0.15649,0.86782 0.09959,0.19443 0.381744,0.42916 0.846474,0.70421 1.332543,0.79193 2.171903,1.44161 2.51808,1.94902 0.346176,0.50741 0.519264,1.32543 0.519264,2.45406 0,0.82039 -0.09721,1.42501 -0.291641,1.81387 -0.189687,0.38885 -0.559574,0.71606 -1.109662,0.98162 -0.550089,0.26082 -1.190278,0.39123 -1.920569,0.39123 -0.801423,0 -1.486663,-0.15175 -2.055721,-0.45525 -0.564316,-0.30349 -0.934203,-0.68998 -1.109662,-1.15945 -0.175459,-0.46947 -0.263189,-1.13575 -0.263189,-1.99882 v -0.754 h 2.781268 v 1.40131 c 0,0.43153 0.03794,0.70895 0.113812,0.83224 0.08062,0.1233 0.22051,0.18495 0.419679,0.18495 0.199171,0 0.346178,-0.0782 0.441021,-0.23474 0.09958,-0.15649 0.149377,-0.38885 0.149377,-0.69709 0,-0.67813 -0.09247,-1.12152 -0.277416,-1.33018 -0.189685,-0.20865 -0.656786,-0.5572 -1.401303,-1.04564 -0.744517,-0.49318 -1.2377,-0.85121 -1.47955,-1.0741 -0.241849,-0.22288 -0.443391,-0.53112 -0.604624,-0.92471 -0.156491,-0.3936 -0.234736,-0.89627 -0.234736,-1.50801 0,-0.88204 0.11144,-1.52697 0.334321,-1.93479 0.227623,-0.40783 0.592769,-0.72555 1.095436,-0.95317 0.502667,-0.23237 1.109662,-0.34855 1.820984,-0.34855 0.777712,0 1.439242,0.12567 1.984589,0.377 0.550088,0.25133 0.912862,0.56906 1.088322,0.95317 0.180201,0.37937 0.270301,1.02668 0.270301,1.94191 z m 1.187908,-3.48548 h 4.993481 v 2.30468 h -1.998816 v 2.18376 h 1.870778 v 2.19087 h -1.870778 v 2.53231 h 2.197986 v 2.30468 h -5.192651 z"
       transform="translate(17.715091,-97.290906)"
       sodipodi:nodetypes="cccccccccccccccccccccccccccccccccccsccsscssssccsscssssscscsscssssccccccccccccscccssscsccccccscssscccccccccccccccsccsscssssccsscssssscscsscsssscccccccccccccccccccccccccccccccccccccccccccccsccsscscsccsccccccccsscccccccccssscsccssccscssccscscsccscsccsccscccccccccccccc" />
  </g>
</svg>
