<?xml version="1.0" encoding="UTF-8" standalone="no"?>
<?xml version="1.0" encoding="UTF-8"?><svg
   width="2000"
   height="2000"
   viewBox="0 0 2000 2000"
   version="1.1"
   id="svg249"
   sodipodi:docname="vite.svg"
   inkscape:version="1.3.2 (091e20e, 2023-11-25, custom)"
   xmlns:inkscape="http://www.inkscape.org/namespaces/inkscape"
   xmlns:sodipodi="http://sodipodi.sourceforge.net/DTD/sodipodi-0.dtd"
   xmlns="http://www.w3.org/2000/svg"
   xmlns:svg="http://www.w3.org/2000/svg">
  <sodipodi:namedview
     id="namedview249"
     pagecolor="#ffffff"
     bordercolor="#000000"
     borderopacity="0.25"
     inkscape:showpageshadow="2"
     inkscape:pageopacity="0.0"
     inkscape:pagecheckerboard="0"
     inkscape:deskcolor="#d1d1d1"
     inkscape:zoom="0.5905"
     inkscape:cx="999.15326"
     inkscape:cy="1000"
     inkscape:window-width="2560"
     inkscape:window-height="1377"
     inkscape:window-x="2552"
     inkscape:window-y="-8"
     inkscape:window-maximized="1"
     inkscape:current-layer="svg249" />
  <defs
     id="defs216">
    <clipPath
       id="clip-0">
      <path
         clip-rule="nonzero"
         d="M 556 511 L 1368 511 L 1368 1225 L 556 1225 Z M 556 511 "
         id="path1" />
    </clipPath>
    <clipPath
       id="clip-1">
      <path
         clip-rule="nonzero"
         d="M 1212 1136.621094 C 1166.390625 1157.761719 1123.601562 1169.25 1088 1175.621094 C 1076.53125 1161.78125 1060.261719 1138.351562 1051 1105.621094 C 1034.550781 1047.46875 1051.058594 998.328125 1058 980.621094 C 1047.171875 992.839844 1033.789062 1010.71875 1023 1034.621094 C 1006.429688 1071.339844 1003.910156 1104.710938 1004 1124.621094 C 999.96875 1103.851562 996.203125 1072.570312 1001.328125 1035.621094 C 1005.390625 1006.421875 1013.628906 983.519531 1028 943.621094 C 1050.261719 881.808594 1060.648438 861.351562 1054.671875 830.289062 C 1053.011719 821.679688 1050.378906 814.078125 1047.480469 807.558594 C 1048.371094 809.96875 1049.109375 812.371094 1049.679688 814.71875 C 1051.351562 821.621094 1053.761719 837.039062 1030.121094 885.128906 C 1008.78125 928.53125 995.945312 939.171875 971.113281 982.128906 C 956.148438 1008.019531 943.671875 1029.609375 936.113281 1057.128906 C 929.664062 1080.621094 922.691406 1123.390625 940.113281 1182.128906 C 931.683594 1162.578125 919.007812 1125.660156 922.613281 1079.128906 C 923.777344 1064.101562 926.070312 1034.53125 942.613281 1003.628906 C 948.011719 993.550781 951.074219 990.519531 967.613281 962.128906 C 977.425781 945.289062 983.246094 935.300781 989.613281 922.628906 C 991.578125 918.71875 993.710938 914.320312 995.945312 909.460938 C 993.703125 910.039062 991.433594 910.601562 989.113281 911.128906 C 913.988281 928.128906 850.777344 903.890625 824.289062 891.769531 C 806.398438 883.691406 771.726562 864.960938 745.746094 826.570312 C 719.820312 788.261719 716.347656 750.738281 714.25 724.578125 C 706.339844 625.941406 751.347656 545.96875 773.941406 511.300781 C 772.316406 512.421875 770.617188 513.449219 769.078125 514.671875 C 743.820312 534.839844 721.523438 557.839844 703.011719 584.371094 C 691.609375 600.710938 683.65625 618.859375 676.738281 637.441406 C 668.996094 658.238281 663.875 679.738281 661.136719 701.75 C 658.835938 720.261719 657.570312 738.878906 659.210938 757.460938 C 641.023438 702.648438 641.246094 655.828125 642.253906 634.578125 C 632.359375 663.121094 622.078125 704.691406 624.253906 754.570312 C 628.933594 861.761719 688.191406 940.558594 736.628906 987.539062 C 726.742188 982.300781 715.65625 976 703.152344 968.390625 C 672.648438 949.820312 655.890625 939.621094 634.070312 921.511719 C 601.390625 894.371094 576.203125 865.140625 556.929688 837.640625 C 595.269531 917.878906 643.101562 970.320312 675.207031 1000.441406 C 696.8125 1020.699219 766.316406 1085.878906 866.507812 1118.851562 C 838.5 1114.46875 807.917969 1107.46875 775.746094 1096.558594 C 710.90625 1074.570312 661.738281 1044.21875 628.753906 1020.058594 C 665.230469 1065.789062 743.195312 1149.75 870.242188 1195.550781 C 912.308594 1210.71875 951.652344 1218.78125 985.765625 1222.890625 C 990.617188 1223.46875 995.363281 1223.980469 1000 1224.410156 C 1004.628906 1223.980469 1009.378906 1223.46875 1014.238281 1222.890625 C 1048.351562 1218.78125 1087.691406 1210.71875 1129.761719 1195.550781 C 1252.601562 1151.261719 1329.558594 1071.300781 1367.488281 1024.71875 C 1330.449219 1063.46875 1279.480469 1105.351562 1212 1136.621094 Z M 1212 1136.621094 "
         id="path2" />
    </clipPath>
    <clipPath
       id="clip-2">
      <path
         clip-rule="nonzero"
         d="M 1212 1136.621094 C 1166.390625 1157.761719 1123.601562 1169.25 1088 1175.621094 C 1076.53125 1161.78125 1060.261719 1138.351562 1051 1105.621094 C 1034.550781 1047.46875 1051.058594 998.328125 1058 980.621094 C 1047.171875 992.839844 1033.789062 1010.71875 1023 1034.621094 C 1006.429688 1071.339844 1003.910156 1104.710938 1004 1124.621094 C 999.96875 1103.851562 996.203125 1072.570312 1001.328125 1035.621094 C 1005.390625 1006.421875 1013.628906 983.519531 1028 943.621094 C 1050.261719 881.808594 1060.648438 861.351562 1054.671875 830.289062 C 1053.011719 821.679688 1050.378906 814.078125 1047.480469 807.558594 C 1048.371094 809.96875 1049.109375 812.371094 1049.679688 814.71875 C 1051.351562 821.621094 1053.761719 837.039062 1030.121094 885.128906 C 1008.78125 928.53125 995.945312 939.171875 971.113281 982.128906 C 956.148438 1008.019531 943.671875 1029.609375 936.113281 1057.128906 C 929.664062 1080.621094 922.691406 1123.390625 940.113281 1182.128906 C 931.683594 1162.578125 919.007812 1125.660156 922.613281 1079.128906 C 923.777344 1064.101562 926.070312 1034.53125 942.613281 1003.628906 C 948.011719 993.550781 951.074219 990.519531 967.613281 962.128906 C 977.425781 945.289062 983.246094 935.300781 989.613281 922.628906 C 991.578125 918.71875 993.710938 914.320312 995.945312 909.460938 C 993.703125 910.039062 991.433594 910.601562 989.113281 911.128906 C 913.988281 928.128906 850.777344 903.890625 824.289062 891.769531 C 806.398438 883.691406 771.726562 864.960938 745.746094 826.570312 C 719.820312 788.261719 716.347656 750.738281 714.25 724.578125 C 706.339844 625.941406 751.347656 545.96875 773.941406 511.300781 C 772.316406 512.421875 770.617188 513.449219 769.078125 514.671875 C 743.820312 534.839844 721.523438 557.839844 703.011719 584.371094 C 691.609375 600.710938 683.65625 618.859375 676.738281 637.441406 C 668.996094 658.238281 663.875 679.738281 661.136719 701.75 C 658.835938 720.261719 657.570312 738.878906 659.210938 757.460938 C 641.023438 702.648438 641.246094 655.828125 642.253906 634.578125 C 632.359375 663.121094 622.078125 704.691406 624.253906 754.570312 C 628.933594 861.761719 688.191406 940.558594 736.628906 987.539062 C 726.742188 982.300781 715.65625 976 703.152344 968.390625 C 672.648438 949.820312 655.890625 939.621094 634.070312 921.511719 C 601.390625 894.371094 576.203125 865.140625 556.929688 837.640625 C 595.269531 917.878906 643.101562 970.320312 675.207031 1000.441406 C 696.8125 1020.699219 766.316406 1085.878906 866.507812 1118.851562 C 838.5 1114.46875 807.917969 1107.46875 775.746094 1096.558594 C 710.90625 1074.570312 661.738281 1044.21875 628.753906 1020.058594 C 665.230469 1065.789062 743.195312 1149.75 870.242188 1195.550781 C 912.308594 1210.71875 951.652344 1218.78125 985.765625 1222.890625 C 990.617188 1223.46875 995.363281 1223.980469 1000 1224.410156 C 1004.628906 1223.980469 1009.378906 1223.46875 1014.238281 1222.890625 C 1048.351562 1218.78125 1087.691406 1210.71875 1129.761719 1195.550781 C 1252.601562 1151.261719 1329.558594 1071.300781 1367.488281 1024.71875 C 1330.449219 1063.46875 1279.480469 1105.351562 1212 1136.621094 "
         id="path3" />
    </clipPath>
    <linearGradient
       id="linear-pattern-0"
       gradientUnits="userSpaceOnUse"
       x1="0.20155"
       y1="0"
       x2="1.053439"
       y2="0"
       gradientTransform="matrix(-460,1052,-1052,-460,1272.65,217.26)">
      <stop
         offset="0"
         stop-color="rgb(94.247437%, 54.47998%, 9.443665%)"
         stop-opacity="1"
         id="stop3" />
      <stop
         offset="0.0078125"
         stop-color="rgb(94.241333%, 54.391479%, 9.498596%)"
         stop-opacity="1"
         id="stop4" />
      <stop
         offset="0.015625"
         stop-color="rgb(94.224548%, 54.165649%, 9.571838%)"
         stop-opacity="1"
         id="stop5" />
      <stop
         offset="0.0234375"
         stop-color="rgb(94.203186%, 53.890991%, 9.609985%)"
         stop-opacity="1"
         id="stop6" />
      <stop
         offset="0.03125"
         stop-color="rgb(94.18335%, 53.616333%, 9.648132%)"
         stop-opacity="1"
         id="stop7" />
      <stop
         offset="0.0390625"
         stop-color="rgb(94.161987%, 53.343201%, 9.686279%)"
         stop-opacity="1"
         id="stop8" />
      <stop
         offset="0.046875"
         stop-color="rgb(94.143677%, 53.103638%, 9.74884%)"
         stop-opacity="1"
         id="stop9" />
      <stop
         offset="0.0625"
         stop-color="rgb(94.125366%, 52.850342%, 9.921265%)"
         stop-opacity="1"
         id="stop10" />
      <stop
         offset="0.0703125"
         stop-color="rgb(94.102478%, 52.563477%, 10.067749%)"
         stop-opacity="1"
         id="stop11" />
      <stop
         offset="0.078125"
         stop-color="rgb(94.082642%, 52.288818%, 10.105896%)"
         stop-opacity="1"
         id="stop12" />
      <stop
         offset="0.09375"
         stop-color="rgb(94.18335%, 52.011108%, 10.118103%)"
         stop-opacity="1"
         id="stop13" />
      <stop
         offset="0.101562"
         stop-color="rgb(94.332886%, 51.780701%, 10.115051%)"
         stop-opacity="1"
         id="stop14" />
      <stop
         offset="0.109375"
         stop-color="rgb(94.360352%, 51.554871%, 10.137939%)"
         stop-opacity="1"
         id="stop15" />
      <stop
         offset="0.117187"
         stop-color="rgb(94.338989%, 51.280212%, 10.174561%)"
         stop-opacity="1"
         id="stop16" />
      <stop
         offset="0.125"
         stop-color="rgb(94.317627%, 51.002502%, 10.267639%)"
         stop-opacity="1"
         id="stop17" />
      <stop
         offset="0.132812"
         stop-color="rgb(94.296265%, 50.723267%, 10.415649%)"
         stop-opacity="1"
         id="stop18" />
      <stop
         offset="0.140625"
         stop-color="rgb(94.277954%, 50.485229%, 10.528564%)"
         stop-opacity="1"
         id="stop19" />
      <stop
         offset="0.15625"
         stop-color="rgb(94.258118%, 50.234985%, 10.585022%)"
         stop-opacity="1"
         id="stop20" />
      <stop
         offset="0.164062"
         stop-color="rgb(94.236755%, 49.946594%, 10.624695%)"
         stop-opacity="1"
         id="stop21" />
      <stop
         offset="0.171875"
         stop-color="rgb(94.215393%, 49.671936%, 10.661316%)"
         stop-opacity="1"
         id="stop22" />
      <stop
         offset="0.179687"
         stop-color="rgb(94.194031%, 49.394226%, 10.743713%)"
         stop-opacity="1"
         id="stop23" />
      <stop
         offset="0.1875"
         stop-color="rgb(94.172668%, 49.113464%, 10.881042%)"
         stop-opacity="1"
         id="stop24" />
      <stop
         offset="0.195312"
         stop-color="rgb(94.152832%, 48.864746%, 11.000061%)"
         stop-opacity="1"
         id="stop25" />
      <stop
         offset="0.203125"
         stop-color="rgb(94.139099%, 48.684692%, 11.054993%)"
         stop-opacity="1"
         id="stop26" />
      <stop
         offset="0.210937"
         stop-color="rgb(94.132996%, 48.545837%, 11.073303%)"
         stop-opacity="1"
         id="stop27" />
      <stop
         offset="0.21875"
         stop-color="rgb(94.189453%, 48.342896%, 11.08551%)"
         stop-opacity="1"
         id="stop28" />
      <stop
         offset="0.226562"
         stop-color="rgb(94.306946%, 48.078918%, 11.09314%)"
         stop-opacity="1"
         id="stop29" />
      <stop
         offset="0.234375"
         stop-color="rgb(94.378662%, 47.81189%, 11.109924%)"
         stop-opacity="1"
         id="stop30" />
      <stop
         offset="0.242188"
         stop-color="rgb(94.380188%, 47.537231%, 11.141968%)"
         stop-opacity="1"
         id="stop31" />
      <stop
         offset="0.25"
         stop-color="rgb(94.360352%, 47.279358%, 11.190796%)"
         stop-opacity="1"
         id="stop32" />
      <stop
         offset="0.265625"
         stop-color="rgb(94.338989%, 47.016907%, 11.347961%)"
         stop-opacity="1"
         id="stop33" />
      <stop
         offset="0.273438"
         stop-color="rgb(94.317627%, 46.740723%, 11.499023%)"
         stop-opacity="1"
         id="stop34" />
      <stop
         offset="0.28125"
         stop-color="rgb(94.297791%, 46.473694%, 11.538696%)"
         stop-opacity="1"
         id="stop35" />
      <stop
         offset="0.289063"
         stop-color="rgb(94.276428%, 46.19751%, 11.575317%)"
         stop-opacity="1"
         id="stop36" />
      <stop
         offset="0.296875"
         stop-color="rgb(94.25354%, 45.921326%, 11.610413%)"
         stop-opacity="1"
         id="stop37" />
      <stop
         offset="0.304688"
         stop-color="rgb(94.233704%, 45.654297%, 11.651611%)"
         stop-opacity="1"
         id="stop38" />
      <stop
         offset="0.3125"
         stop-color="rgb(94.218445%, 45.449829%, 11.737061%)"
         stop-opacity="1"
         id="stop39" />
      <stop
         offset="0.320313"
         stop-color="rgb(94.206238%, 45.306396%, 11.862183%)"
         stop-opacity="1"
         id="stop40" />
      <stop
         offset="0.328125"
         stop-color="rgb(94.190979%, 45.114136%, 11.953735%)"
         stop-opacity="1"
         id="stop41" />
      <stop
         offset="0.335938"
         stop-color="rgb(94.171143%, 44.85321%, 12.001038%)"
         stop-opacity="1"
         id="stop42" />
      <stop
         offset="0.34375"
         stop-color="rgb(94.174194%, 44.580078%, 12.031555%)"
         stop-opacity="1"
         id="stop43" />
      <stop
         offset="0.351563"
         stop-color="rgb(94.245911%, 44.309998%, 12.04834%)"
         stop-opacity="1"
         id="stop44" />
      <stop
         offset="0.359375"
         stop-color="rgb(94.360352%, 44.042969%, 12.055969%)"
         stop-opacity="1"
         id="stop45" />
      <stop
         offset="0.375"
         stop-color="rgb(94.40918%, 43.768311%, 12.077332%)"
         stop-opacity="1"
         id="stop46" />
      <stop
         offset="0.382813"
         stop-color="rgb(94.390869%, 43.515015%, 12.139893%)"
         stop-opacity="1"
         id="stop47" />
      <stop
         offset="0.390625"
         stop-color="rgb(94.371033%, 43.263245%, 12.252808%)"
         stop-opacity="1"
         id="stop48" />
      <stop
         offset="0.398438"
         stop-color="rgb(94.348145%, 42.979431%, 12.382507%)"
         stop-opacity="1"
         id="stop49" />
      <stop
         offset="0.40625"
         stop-color="rgb(94.326782%, 42.700195%, 12.458801%)"
         stop-opacity="1"
         id="stop50" />
      <stop
         offset="0.414063"
         stop-color="rgb(94.30542%, 42.422485%, 12.493896%)"
         stop-opacity="1"
         id="stop51" />
      <stop
         offset="0.421875"
         stop-color="rgb(94.287109%, 42.201233%, 12.521362%)"
         stop-opacity="1"
         id="stop52" />
      <stop
         offset="0.429688"
         stop-color="rgb(94.276428%, 42.050171%, 12.539673%)"
         stop-opacity="1"
         id="stop53" />
      <stop
         offset="0.4375"
         stop-color="rgb(94.262695%, 41.879272%, 12.583923%)"
         stop-opacity="1"
         id="stop54" />
      <stop
         offset="0.445313"
         stop-color="rgb(94.242859%, 41.638184%, 12.684631%)"
         stop-opacity="1"
         id="stop55" />
      <stop
         offset="0.453125"
         stop-color="rgb(94.221497%, 41.352844%, 12.820435%)"
         stop-opacity="1"
         id="stop56" />
      <stop
         offset="0.460938"
         stop-color="rgb(94.198608%, 41.072083%, 12.902832%)"
         stop-opacity="1"
         id="stop57" />
      <stop
         offset="0.46875"
         stop-color="rgb(94.177246%, 40.794373%, 12.937927%)"
         stop-opacity="1"
         id="stop58" />
      <stop
         offset="0.484375"
         stop-color="rgb(94.265747%, 40.498352%, 12.953186%)"
         stop-opacity="1"
         id="stop59" />
      <stop
         offset="0.492188"
         stop-color="rgb(94.406128%, 40.255737%, 12.953186%)"
         stop-opacity="1"
         id="stop60" />
      <stop
         offset="0.5"
         stop-color="rgb(94.436646%, 40.029907%, 12.971497%)"
         stop-opacity="1"
         id="stop61" />
      <stop
         offset="0.507813"
         stop-color="rgb(94.413757%, 39.753723%, 13.006592%)"
         stop-opacity="1"
         id="stop62" />
      <stop
         offset="0.515625"
         stop-color="rgb(94.392395%, 39.471436%, 13.084412%)"
         stop-opacity="1"
         id="stop63" />
      <stop
         offset="0.523438"
         stop-color="rgb(94.369507%, 39.186096%, 13.212585%)"
         stop-opacity="1"
         id="stop64" />
      <stop
         offset="0.53125"
         stop-color="rgb(94.34967%, 38.935852%, 13.317871%)"
         stop-opacity="1"
         id="stop65" />
      <stop
         offset="0.546875"
         stop-color="rgb(94.329834%, 38.682556%, 13.372803%)"
         stop-opacity="1"
         id="stop66" />
      <stop
         offset="0.554688"
         stop-color="rgb(94.306946%, 38.397217%, 13.406372%)"
         stop-opacity="1"
         id="stop67" />
      <stop
         offset="0.5625"
         stop-color="rgb(94.284058%, 38.119507%, 13.439941%)"
         stop-opacity="1"
         id="stop68" />
      <stop
         offset="0.570313"
         stop-color="rgb(94.261169%, 37.838745%, 13.508606%)"
         stop-opacity="1"
         id="stop69" />
      <stop
         offset="0.578125"
         stop-color="rgb(94.239807%, 37.55188%, 13.627625%)"
         stop-opacity="1"
         id="stop70" />
      <stop
         offset="0.585938"
         stop-color="rgb(94.218445%, 37.290955%, 13.739014%)"
         stop-opacity="1"
         id="stop71" />
      <stop
         offset="0.59375"
         stop-color="rgb(94.203186%, 37.103271%, 13.792419%)"
         stop-opacity="1"
         id="stop72" />
      <stop
         offset="0.601563"
         stop-color="rgb(94.192505%, 36.964417%, 13.809204%)"
         stop-opacity="1"
         id="stop73" />
      <stop
         offset="0.609375"
         stop-color="rgb(94.239807%, 36.759949%, 13.821411%)"
         stop-opacity="1"
         id="stop74" />
      <stop
         offset="0.617188"
         stop-color="rgb(94.348145%, 36.488342%, 13.830566%)"
         stop-opacity="1"
         id="stop75" />
      <stop
         offset="0.625"
         stop-color="rgb(94.419861%, 36.210632%, 13.845825%)"
         stop-opacity="1"
         id="stop76" />
      <stop
         offset="0.632813"
         stop-color="rgb(94.424438%, 35.934448%, 13.874817%)"
         stop-opacity="1"
         id="stop77" />
      <stop
         offset="0.640625"
         stop-color="rgb(94.403076%, 35.667419%, 13.91449%)"
         stop-opacity="1"
         id="stop78" />
      <stop
         offset="0.65625"
         stop-color="rgb(94.381714%, 35.391235%, 14.050293%)"
         stop-opacity="1"
         id="stop79" />
      <stop
         offset="0.664063"
         stop-color="rgb(94.358826%, 35.115051%, 14.186096%)"
         stop-opacity="1"
         id="stop80" />
      <stop
         offset="0.671875"
         stop-color="rgb(94.337463%, 34.849548%, 14.225769%)"
         stop-opacity="1"
         id="stop81" />
      <stop
         offset="0.679688"
         stop-color="rgb(94.314575%, 34.568787%, 14.259338%)"
         stop-opacity="1"
         id="stop82" />
      <stop
         offset="0.6875"
         stop-color="rgb(94.293213%, 34.291077%, 14.291382%)"
         stop-opacity="1"
         id="stop83" />
      <stop
         offset="0.695313"
         stop-color="rgb(94.270325%, 34.014893%, 14.323425%)"
         stop-opacity="1"
         id="stop84" />
      <stop
         offset="0.703125"
         stop-color="rgb(94.25354%, 33.807373%, 14.346313%)"
         stop-opacity="1"
         id="stop85" />
      <stop
         offset="0.710938"
         stop-color="rgb(94.242859%, 33.670044%, 14.363098%)"
         stop-opacity="1"
         id="stop86" />
      <stop
         offset="0.71875"
         stop-color="rgb(94.2276%, 33.480835%, 14.414978%)"
         stop-opacity="1"
         id="stop87" />
      <stop
         offset="0.726563"
         stop-color="rgb(94.206238%, 33.216858%, 14.520264%)"
         stop-opacity="1"
         id="stop88" />
      <stop
         offset="0.734375"
         stop-color="rgb(94.20166%, 32.929993%, 14.628601%)"
         stop-opacity="1"
         id="stop89" />
      <stop
         offset="0.742188"
         stop-color="rgb(94.261169%, 32.646179%, 14.682007%)"
         stop-opacity="1"
         id="stop90" />
      <stop
         offset="0.75"
         stop-color="rgb(94.369507%, 32.366943%, 14.691162%)"
         stop-opacity="1"
         id="stop91" />
      <stop
         offset="0.765625"
         stop-color="rgb(94.418335%, 32.080078%, 14.710999%)"
         stop-opacity="1"
         id="stop92" />
      <stop
         offset="0.773438"
         stop-color="rgb(94.404602%, 31.82373%, 14.761353%)"
         stop-opacity="1"
         id="stop93" />
      <stop
         offset="0.78125"
         stop-color="rgb(94.38324%, 31.57196%, 14.857483%)"
         stop-opacity="1"
         id="stop94" />
      <stop
         offset="0.789063"
         stop-color="rgb(94.360352%, 31.280518%, 14.974976%)"
         stop-opacity="1"
         id="stop95" />
      <stop
         offset="0.796875"
         stop-color="rgb(94.337463%, 30.996704%, 15.046692%)"
         stop-opacity="1"
         id="stop96" />
      <stop
         offset="0.804688"
         stop-color="rgb(94.314575%, 30.717468%, 15.077209%)"
         stop-opacity="1"
         id="stop97" />
      <stop
         offset="0.8125"
         stop-color="rgb(94.294739%, 30.488586%, 15.103149%)"
         stop-opacity="1"
         id="stop98" />
      <stop
         offset="0.828125"
         stop-color="rgb(94.274902%, 30.235291%, 15.130615%)"
         stop-opacity="1"
         id="stop99" />
      <stop
         offset="0.835938"
         stop-color="rgb(94.248962%, 29.931641%, 15.164185%)"
         stop-opacity="1"
         id="stop100" />
      <stop
         offset="0.84375"
         stop-color="rgb(94.226074%, 29.652405%, 15.194702%)"
         stop-opacity="1"
         id="stop101" />
      <stop
         offset="0.851563"
         stop-color="rgb(94.203186%, 29.367065%, 15.267944%)"
         stop-opacity="1"
         id="stop102" />
      <stop
         offset="0.859375"
         stop-color="rgb(94.180298%, 29.075623%, 15.385437%)"
         stop-opacity="1"
         id="stop103" />
      <stop
         offset="0.867188"
         stop-color="rgb(94.197083%, 28.826904%, 15.46936%)"
         stop-opacity="1"
         id="stop104" />
      <stop
         offset="0.875"
         stop-color="rgb(94.284058%, 28.651428%, 15.490723%)"
         stop-opacity="1"
         id="stop105" />
      <stop
         offset="0.882813"
         stop-color="rgb(94.387817%, 28.494263%, 15.489197%)"
         stop-opacity="1"
         id="stop106" />
      <stop
         offset="0.890625"
         stop-color="rgb(94.421387%, 28.269958%, 15.505981%)"
         stop-opacity="1"
         id="stop107" />
      <stop
         offset="0.898438"
         stop-color="rgb(94.396973%, 27.989197%, 15.536499%)"
         stop-opacity="1"
         id="stop108" />
      <stop
         offset="0.90625"
         stop-color="rgb(94.374084%, 27.703857%, 15.600586%)"
         stop-opacity="1"
         id="stop109" />
      <stop
         offset="0.914063"
         stop-color="rgb(94.34967%, 27.412415%, 15.708923%)"
         stop-opacity="1"
         id="stop110" />
      <stop
         offset="0.921875"
         stop-color="rgb(94.328308%, 27.151489%, 15.805054%)"
         stop-opacity="1"
         id="stop111" />
      <stop
         offset="0.9375"
         stop-color="rgb(94.308472%, 26.898193%, 15.856934%)"
         stop-opacity="1"
         id="stop112" />
      <stop
         offset="1"
         stop-color="rgb(94.296265%, 26.759338%, 15.870667%)"
         stop-opacity="1"
         id="stop113" />
    </linearGradient>
    <clipPath
       id="clip-3">
      <path
         clip-rule="nonzero"
         d="M 842 494 L 1444 494 L 1444 1176 L 842 1176 Z M 842 494 "
         id="path113" />
    </clipPath>
    <clipPath
       id="clip-4">
      <path
         clip-rule="nonzero"
         d="M 896.179688 774.761719 C 892.925781 775.511719 889.402344 775.089844 886.003906 775.210938 C 886.59375 772.058594 886.851562 768.808594 887.839844 765.789062 C 891.207031 755.53125 901.289062 743.558594 909.496094 739.859375 C 917.296875 749.539062 912.648438 770.960938 896.179688 774.761719 Z M 1224.25 1096.558594 C 1192.078125 1107.46875 1161.5 1114.46875 1133.488281 1118.851562 C 1233.679688 1085.878906 1303.191406 1020.699219 1324.789062 1000.441406 C 1356.898438 970.320312 1404.730469 917.878906 1443.070312 837.640625 C 1423.800781 865.140625 1398.609375 894.371094 1365.929688 921.511719 C 1344.109375 939.621094 1327.351562 949.820312 1296.851562 968.390625 C 1284.339844 976 1273.261719 982.300781 1263.371094 987.539062 C 1311.808594 940.558594 1371.070312 861.761719 1375.738281 754.570312 C 1377.921875 704.691406 1367.640625 663.121094 1357.75 634.578125 C 1358.75 655.828125 1358.980469 702.648438 1340.789062 757.460938 C 1342.429688 738.878906 1341.171875 720.261719 1338.859375 701.75 C 1336.121094 679.738281 1331 658.238281 1323.261719 637.441406 C 1316.339844 618.859375 1308.390625 600.710938 1296.988281 584.371094 C 1278.480469 557.839844 1256.179688 534.839844 1230.921875 514.671875 C 1229.378906 513.449219 1227.679688 512.421875 1226.058594 511.300781 C 1248.648438 545.96875 1293.660156 625.941406 1285.75 724.578125 C 1283.648438 750.738281 1280.179688 788.261719 1254.25 826.570312 C 1235.03125 854.980469 1211.058594 872.609375 1192.628906 883.140625 C 1192.910156 874.058594 1192.5 863.558594 1190.671875 852.03125 C 1187.730469 833.589844 1182.171875 818.769531 1177.328125 808.371094 C 1179.78125 810.511719 1183.308594 813.078125 1188 815.03125 C 1198.101562 819.25 1207.351562 818.03125 1211.5 817.199219 C 1201.871094 811.078125 1196.820312 804.488281 1194 799.699219 C 1189.941406 792.808594 1189.648438 788.199219 1185.5 778.199219 C 1181.660156 768.960938 1177.390625 762 1174.5 757.699219 C 1176.710938 757.320312 1199.488281 753.050781 1207.5 733.699219 C 1210.210938 727.171875 1210.371094 721 1210 716.699219 C 1207.910156 719.929688 1199.410156 732.289062 1185 734.199219 C 1176.261719 735.359375 1169.28125 732.160156 1162 728.699219 C 1150.578125 723.28125 1144.570312 717.339844 1138.300781 711.621094 C 1148.25 711.078125 1156.058594 707.578125 1160 701.699219 C 1161.519531 699.429688 1163.609375 695.101562 1163 687.699219 C 1161.738281 688.960938 1156.578125 693.828125 1148.5 694.199219 C 1142.648438 694.46875 1138.289062 692.25 1136.5 691.199219 C 1128.429688 686.78125 1119.78125 682.371094 1110.570312 678.070312 C 1110.828125 677.730469 1111.078125 677.421875 1111.339844 677.070312 C 1118.230469 667.980469 1160.710938 609.828125 1140 546.699219 C 1136.371094 535.640625 1127.730469 515.058594 1105.890625 494.828125 C 1113 506.570312 1126.261719 532.609375 1120.578125 563.050781 C 1118.449219 574.5 1114.28125 582.96875 1110.789062 590.160156 C 1101.261719 609.859375 1087.269531 626.699219 1069.679688 641.011719 C 1057.320312 651.058594 1043.988281 659.929688 1031.019531 669.230469 C 1028.339844 671.148438 1025.328125 672.609375 1022.460938 674.289062 C 1033.589844 653.339844 1040.648438 632.191406 1036.988281 608.359375 C 1033.359375 584.808594 1022.160156 565.480469 1005.628906 547.699219 C 1009.980469 559.28125 1018.738281 587.640625 1006.449219 613.289062 C 1003.289062 619.878906 999.457031 625.261719 997.230469 627.808594 C 985.8125 640.890625 971.378906 650.160156 957.023438 659.519531 C 934.148438 674.441406 911.289062 689.371094 891.652344 708.578125 C 878.648438 721.308594 867.941406 735.578125 862.082031 753.050781 C 857.511719 766.671875 857.097656 780.820312 856.828125 795.011719 C 856.785156 797.410156 856.472656 799.980469 855.644531 802.238281 C 847.757812 819.601562 840.695312 843.269531 842.78125 870.789062 C 843.394531 878.898438 844.730469 886.359375 846.449219 893.128906 C 849.566406 881.878906 854.707031 867.660156 863.449219 852.460938 C 873.382812 835.191406 884.746094 822.269531 894.339844 813.089844 C 894.578125 813.058594 894.816406 813.019531 895.054688 812.988281 C 907.257812 813.628906 923.683594 812.941406 942.113281 807.628906 C 970.871094 799.328125 990.074219 783.949219 999.613281 775.128906 C 1002.488281 774.28125 1005.890625 773.761719 1009.621094 774.128906 C 1025.289062 775.691406 1033.691406 791.679688 1034.671875 793.621094 C 1033.710938 790.660156 1028.269531 774.730469 1012.121094 767.628906 C 1004.75 764.390625 997.933594 764.210938 993.792969 764.460938 C 995.519531 764.140625 997.292969 763.941406 999.125 763.898438 C 1019.558594 763.410156 1039.53125 785.890625 1047.480469 807.558594 C 1050.378906 814.078125 1053.011719 821.679688 1054.671875 830.289062 C 1060.648438 861.351562 1050.261719 881.808594 1028 943.621094 C 1013.628906 983.519531 1005.390625 1006.421875 1001.328125 1035.621094 C 996.203125 1072.570312 999.96875 1103.851562 1004 1124.621094 C 1003.910156 1104.710938 1006.429688 1071.339844 1023 1034.621094 C 1033.789062 1010.71875 1047.171875 992.839844 1058 980.621094 C 1051.058594 998.328125 1034.550781 1047.46875 1051 1105.621094 C 1060.261719 1138.351562 1076.53125 1161.78125 1088 1175.621094 C 1123.601562 1169.25 1166.390625 1157.761719 1212 1136.621094 C 1279.480469 1105.351562 1330.449219 1063.46875 1367.488281 1024.71875 C 1368.789062 1023.128906 1370.039062 1021.570312 1371.25 1020.058594 C 1338.261719 1044.21875 1289.089844 1074.570312 1224.25 1096.558594 Z M 1224.25 1096.558594 "
         id="path114" />
    </clipPath>
    <clipPath
       id="clip-5">
      <path
         clip-rule="nonzero"
         d="M 896.179688 774.761719 C 892.925781 775.511719 889.402344 775.089844 886.003906 775.210938 C 886.59375 772.058594 886.851562 768.808594 887.839844 765.789062 C 891.207031 755.53125 901.289062 743.558594 909.496094 739.859375 C 917.296875 749.539062 912.648438 770.960938 896.179688 774.761719 Z M 1224.25 1096.558594 C 1192.078125 1107.46875 1161.5 1114.46875 1133.488281 1118.851562 C 1233.679688 1085.878906 1303.191406 1020.699219 1324.789062 1000.441406 C 1356.898438 970.320312 1404.730469 917.878906 1443.070312 837.640625 C 1423.800781 865.140625 1398.609375 894.371094 1365.929688 921.511719 C 1344.109375 939.621094 1327.351562 949.820312 1296.851562 968.390625 C 1284.339844 976 1273.261719 982.300781 1263.371094 987.539062 C 1311.808594 940.558594 1371.070312 861.761719 1375.738281 754.570312 C 1377.921875 704.691406 1367.640625 663.121094 1357.75 634.578125 C 1358.75 655.828125 1358.980469 702.648438 1340.789062 757.460938 C 1342.429688 738.878906 1341.171875 720.261719 1338.859375 701.75 C 1336.121094 679.738281 1331 658.238281 1323.261719 637.441406 C 1316.339844 618.859375 1308.390625 600.710938 1296.988281 584.371094 C 1278.480469 557.839844 1256.179688 534.839844 1230.921875 514.671875 C 1229.378906 513.449219 1227.679688 512.421875 1226.058594 511.300781 C 1248.648438 545.96875 1293.660156 625.941406 1285.75 724.578125 C 1283.648438 750.738281 1280.179688 788.261719 1254.25 826.570312 C 1235.03125 854.980469 1211.058594 872.609375 1192.628906 883.140625 C 1192.910156 874.058594 1192.5 863.558594 1190.671875 852.03125 C 1187.730469 833.589844 1182.171875 818.769531 1177.328125 808.371094 C 1179.78125 810.511719 1183.308594 813.078125 1188 815.03125 C 1198.101562 819.25 1207.351562 818.03125 1211.5 817.199219 C 1201.871094 811.078125 1196.820312 804.488281 1194 799.699219 C 1189.941406 792.808594 1189.648438 788.199219 1185.5 778.199219 C 1181.660156 768.960938 1177.390625 762 1174.5 757.699219 C 1176.710938 757.320312 1199.488281 753.050781 1207.5 733.699219 C 1210.210938 727.171875 1210.371094 721 1210 716.699219 C 1207.910156 719.929688 1199.410156 732.289062 1185 734.199219 C 1176.261719 735.359375 1169.28125 732.160156 1162 728.699219 C 1150.578125 723.28125 1144.570312 717.339844 1138.300781 711.621094 C 1148.25 711.078125 1156.058594 707.578125 1160 701.699219 C 1161.519531 699.429688 1163.609375 695.101562 1163 687.699219 C 1161.738281 688.960938 1156.578125 693.828125 1148.5 694.199219 C 1142.648438 694.46875 1138.289062 692.25 1136.5 691.199219 C 1128.429688 686.78125 1119.78125 682.371094 1110.570312 678.070312 C 1110.828125 677.730469 1111.078125 677.421875 1111.339844 677.070312 C 1118.230469 667.980469 1160.710938 609.828125 1140 546.699219 C 1136.371094 535.640625 1127.730469 515.058594 1105.890625 494.828125 C 1113 506.570312 1126.261719 532.609375 1120.578125 563.050781 C 1118.449219 574.5 1114.28125 582.96875 1110.789062 590.160156 C 1101.261719 609.859375 1087.269531 626.699219 1069.679688 641.011719 C 1057.320312 651.058594 1043.988281 659.929688 1031.019531 669.230469 C 1028.339844 671.148438 1025.328125 672.609375 1022.460938 674.289062 C 1033.589844 653.339844 1040.648438 632.191406 1036.988281 608.359375 C 1033.359375 584.808594 1022.160156 565.480469 1005.628906 547.699219 C 1009.980469 559.28125 1018.738281 587.640625 1006.449219 613.289062 C 1003.289062 619.878906 999.457031 625.261719 997.230469 627.808594 C 985.8125 640.890625 971.378906 650.160156 957.023438 659.519531 C 934.148438 674.441406 911.289062 689.371094 891.652344 708.578125 C 878.648438 721.308594 867.941406 735.578125 862.082031 753.050781 C 857.511719 766.671875 857.097656 780.820312 856.828125 795.011719 C 856.785156 797.410156 856.472656 799.980469 855.644531 802.238281 C 847.757812 819.601562 840.695312 843.269531 842.78125 870.789062 C 843.394531 878.898438 844.730469 886.359375 846.449219 893.128906 C 849.566406 881.878906 854.707031 867.660156 863.449219 852.460938 C 873.382812 835.191406 884.746094 822.269531 894.339844 813.089844 C 894.578125 813.058594 894.816406 813.019531 895.054688 812.988281 C 907.257812 813.628906 923.683594 812.941406 942.113281 807.628906 C 970.871094 799.328125 990.074219 783.949219 999.613281 775.128906 C 1002.488281 774.28125 1005.890625 773.761719 1009.621094 774.128906 C 1025.289062 775.691406 1033.691406 791.679688 1034.671875 793.621094 C 1033.710938 790.660156 1028.269531 774.730469 1012.121094 767.628906 C 1004.75 764.390625 997.933594 764.210938 993.792969 764.460938 C 995.519531 764.140625 997.292969 763.941406 999.125 763.898438 C 1019.558594 763.410156 1039.53125 785.890625 1047.480469 807.558594 C 1050.378906 814.078125 1053.011719 821.679688 1054.671875 830.289062 C 1060.648438 861.351562 1050.261719 881.808594 1028 943.621094 C 1013.628906 983.519531 1005.390625 1006.421875 1001.328125 1035.621094 C 996.203125 1072.570312 999.96875 1103.851562 1004 1124.621094 C 1003.910156 1104.710938 1006.429688 1071.339844 1023 1034.621094 C 1033.789062 1010.71875 1047.171875 992.839844 1058 980.621094 C 1051.058594 998.328125 1034.550781 1047.46875 1051 1105.621094 C 1060.261719 1138.351562 1076.53125 1161.78125 1088 1175.621094 C 1123.601562 1169.25 1166.390625 1157.761719 1212 1136.621094 C 1279.480469 1105.351562 1330.449219 1063.46875 1367.488281 1024.71875 C 1368.789062 1023.128906 1370.039062 1021.570312 1371.25 1020.058594 C 1338.261719 1044.21875 1289.089844 1074.570312 1224.25 1096.558594 "
         id="path115" />
    </clipPath>
    <linearGradient
       id="linear-pattern-1"
       gradientUnits="userSpaceOnUse"
       x1="0.111729"
       y1="0"
       x2="0.696934"
       y2="0"
       gradientTransform="matrix(-84,1228,-1228,-84,1177.51,338.82)">
      <stop
         offset="0"
         stop-color="rgb(94.143677%, 57.588196%, 8.59375%)"
         stop-opacity="1"
         id="stop115" />
      <stop
         offset="0.0078125"
         stop-color="rgb(94.136047%, 57.493591%, 8.607483%)"
         stop-opacity="1"
         id="stop116" />
      <stop
         offset="0.015625"
         stop-color="rgb(94.122314%, 57.305908%, 8.634949%)"
         stop-opacity="1"
         id="stop117" />
      <stop
         offset="0.0234375"
         stop-color="rgb(94.108582%, 57.118225%, 8.662415%)"
         stop-opacity="1"
         id="stop118" />
      <stop
         offset="0.03125"
         stop-color="rgb(94.094849%, 56.930542%, 8.717346%)"
         stop-opacity="1"
         id="stop119" />
      <stop
         offset="0.0390625"
         stop-color="rgb(94.081116%, 56.741333%, 8.811951%)"
         stop-opacity="1"
         id="stop120" />
      <stop
         offset="0.046875"
         stop-color="rgb(94.065857%, 56.550598%, 8.920288%)"
         stop-opacity="1"
         id="stop121" />
      <stop
         offset="0.0625"
         stop-color="rgb(94.049072%, 56.323242%, 9.0271%)"
         stop-opacity="1"
         id="stop122" />
      <stop
         offset="0.078125"
         stop-color="rgb(94.032288%, 56.097412%, 9.092712%)"
         stop-opacity="1"
         id="stop123" />
      <stop
         offset="0.0859375"
         stop-color="rgb(94.055176%, 55.92804%, 9.107971%)"
         stop-opacity="1"
         id="stop124" />
      <stop
         offset="0.09375"
         stop-color="rgb(94.126892%, 55.763245%, 9.114075%)"
         stop-opacity="1"
         id="stop125" />
      <stop
         offset="0.101562"
         stop-color="rgb(94.210815%, 55.587769%, 9.118652%)"
         stop-opacity="1"
         id="stop126" />
      <stop
         offset="0.109375"
         stop-color="rgb(94.282532%, 55.410767%, 9.124756%)"
         stop-opacity="1"
         id="stop127" />
      <stop
         offset="0.117187"
         stop-color="rgb(94.30542%, 55.226135%, 9.143066%)"
         stop-opacity="1"
         id="stop128" />
      <stop
         offset="0.125"
         stop-color="rgb(94.290161%, 55.038452%, 9.170532%)"
         stop-opacity="1"
         id="stop129" />
      <stop
         offset="0.140625"
         stop-color="rgb(94.271851%, 54.792786%, 9.237671%)"
         stop-opacity="1"
         id="stop130" />
      <stop
         offset="0.15625"
         stop-color="rgb(94.25354%, 54.544067%, 9.382629%)"
         stop-opacity="1"
         id="stop131" />
      <stop
         offset="0.171875"
         stop-color="rgb(94.233704%, 54.290771%, 9.526062%)"
         stop-opacity="1"
         id="stop132" />
      <stop
         offset="0.179688"
         stop-color="rgb(94.215393%, 54.039001%, 9.590149%)"
         stop-opacity="1"
         id="stop133" />
      <stop
         offset="0.1875"
         stop-color="rgb(94.200134%, 53.851318%, 9.616089%)"
         stop-opacity="1"
         id="stop134" />
      <stop
         offset="0.195312"
         stop-color="rgb(94.186401%, 53.662109%, 9.642029%)"
         stop-opacity="1"
         id="stop135" />
      <stop
         offset="0.203125"
         stop-color="rgb(94.172668%, 53.474426%, 9.667969%)"
         stop-opacity="1"
         id="stop136" />
      <stop
         offset="0.210937"
         stop-color="rgb(94.15741%, 53.286743%, 9.695435%)"
         stop-opacity="1"
         id="stop137" />
      <stop
         offset="0.21875"
         stop-color="rgb(94.145203%, 53.114319%, 9.732056%)"
         stop-opacity="1"
         id="stop138" />
      <stop
         offset="0.234375"
         stop-color="rgb(94.13147%, 52.938843%, 9.849548%)"
         stop-opacity="1"
         id="stop139" />
      <stop
         offset="0.25"
         stop-color="rgb(94.113159%, 52.703857%, 10.005188%)"
         stop-opacity="1"
         id="stop140" />
      <stop
         offset="0.257812"
         stop-color="rgb(94.096375%, 52.471924%, 10.079956%)"
         stop-opacity="1"
         id="stop141" />
      <stop
         offset="0.265625"
         stop-color="rgb(94.082642%, 52.284241%, 10.105896%)"
         stop-opacity="1"
         id="stop142" />
      <stop
         offset="0.28125"
         stop-color="rgb(94.134521%, 52.076721%, 10.121155%)"
         stop-opacity="1"
         id="stop143" />
      <stop
         offset="0.296875"
         stop-color="rgb(94.284058%, 51.878357%, 10.113525%)"
         stop-opacity="1"
         id="stop144" />
      <stop
         offset="0.304687"
         stop-color="rgb(94.367981%, 51.702881%, 10.118103%)"
         stop-opacity="1"
         id="stop145" />
      <stop
         offset="0.3125"
         stop-color="rgb(94.3573%, 51.516724%, 10.142517%)"
         stop-opacity="1"
         id="stop146" />
      <stop
         offset="0.320313"
         stop-color="rgb(94.342041%, 51.327515%, 10.168457%)"
         stop-opacity="1"
         id="stop147" />
      <stop
         offset="0.328125"
         stop-color="rgb(94.328308%, 51.138306%, 10.214233%)"
         stop-opacity="1"
         id="stop148" />
      <stop
         offset="0.335938"
         stop-color="rgb(94.313049%, 50.947571%, 10.296631%)"
         stop-opacity="1"
         id="stop149" />
      <stop
         offset="0.34375"
         stop-color="rgb(94.297791%, 50.75531%, 10.398865%)"
         stop-opacity="1"
         id="stop150" />
      <stop
         offset="0.359375"
         stop-color="rgb(94.27948%, 50.515747%, 10.508728%)"
         stop-opacity="1"
         id="stop151" />
      <stop
         offset="0.375"
         stop-color="rgb(94.261169%, 50.27771%, 10.578918%)"
         stop-opacity="1"
         id="stop152" />
      <stop
         offset="0.382812"
         stop-color="rgb(94.248962%, 50.111389%, 10.601807%)"
         stop-opacity="1"
         id="stop153" />
      <stop
         offset="0.390625"
         stop-color="rgb(94.236755%, 49.945068%, 10.624695%)"
         stop-opacity="1"
         id="stop154" />
      <stop
         offset="0.398438"
         stop-color="rgb(94.221497%, 49.755859%, 10.649109%)"
         stop-opacity="1"
         id="stop155" />
      <stop
         offset="0.40625"
         stop-color="rgb(94.207764%, 49.56665%, 10.678101%)"
         stop-opacity="1"
         id="stop156" />
      <stop
         offset="0.414063"
         stop-color="rgb(94.192505%, 49.37439%, 10.743713%)"
         stop-opacity="1"
         id="stop157" />
      <stop
         offset="0.421875"
         stop-color="rgb(94.177246%, 49.182129%, 10.844421%)"
         stop-opacity="1"
         id="stop158" />
      <stop
         offset="0.4375"
         stop-color="rgb(94.15741%, 48.921204%, 10.971069%)"
         stop-opacity="1"
         id="stop159" />
      <stop
         offset="0.453125"
         stop-color="rgb(94.137573%, 48.66333%, 11.058044%)"
         stop-opacity="1"
         id="stop160" />
      <stop
         offset="0.46875"
         stop-color="rgb(94.174194%, 48.426819%, 11.079407%)"
         stop-opacity="1"
         id="stop161" />
      <stop
         offset="0.476562"
         stop-color="rgb(94.255066%, 48.193359%, 11.090088%)"
         stop-opacity="1"
         id="stop162" />
      <stop
         offset="0.484375"
         stop-color="rgb(94.335938%, 48.013306%, 11.094666%)"
         stop-opacity="1"
         id="stop163" />
      <stop
         offset="0.492188"
         stop-color="rgb(94.386292%, 47.828674%, 11.106873%)"
         stop-opacity="1"
         id="stop164" />
      <stop
         offset="0.5"
         stop-color="rgb(94.387817%, 47.640991%, 11.128235%)"
         stop-opacity="1"
         id="stop165" />
      <stop
         offset="0.507813"
         stop-color="rgb(94.372559%, 47.451782%, 11.154175%)"
         stop-opacity="1"
         id="stop166" />
      <stop
         offset="0.515625"
         stop-color="rgb(94.358826%, 47.270203%, 11.183167%)"
         stop-opacity="1"
         id="stop167" />
      <stop
         offset="0.53125"
         stop-color="rgb(94.345093%, 47.084045%, 11.288452%)"
         stop-opacity="1"
         id="stop168" />
      <stop
         offset="0.546875"
         stop-color="rgb(94.326782%, 46.855164%, 11.44104%)"
         stop-opacity="1"
         id="stop169" />
      <stop
         offset="0.554688"
         stop-color="rgb(94.309998%, 46.629333%, 11.51886%)"
         stop-opacity="1"
         id="stop170" />
      <stop
         offset="0.5625"
         stop-color="rgb(94.294739%, 46.440125%, 11.543274%)"
         stop-opacity="1"
         id="stop171" />
      <stop
         offset="0.570312"
         stop-color="rgb(94.27948%, 46.24939%, 11.567688%)"
         stop-opacity="1"
         id="stop172" />
      <stop
         offset="0.578125"
         stop-color="rgb(94.265747%, 46.060181%, 11.593628%)"
         stop-opacity="1"
         id="stop173" />
      <stop
         offset="0.585938"
         stop-color="rgb(94.250488%, 45.870972%, 11.618042%)"
         stop-opacity="1"
         id="stop174" />
      <stop
         offset="0.59375"
         stop-color="rgb(94.235229%, 45.680237%, 11.642456%)"
         stop-opacity="1"
         id="stop175" />
      <stop
         offset="0.609375"
         stop-color="rgb(94.219971%, 45.475769%, 11.732483%)"
         stop-opacity="1"
         id="stop176" />
      <stop
         offset="0.625"
         stop-color="rgb(94.203186%, 45.252991%, 11.886597%)"
         stop-opacity="1"
         id="stop177" />
      <stop
         offset="0.632813"
         stop-color="rgb(94.186401%, 45.045471%, 11.976624%)"
         stop-opacity="1"
         id="stop178" />
      <stop
         offset="0.640625"
         stop-color="rgb(94.171143%, 44.856262%, 12.001038%)"
         stop-opacity="1"
         id="stop179" />
      <stop
         offset="0.648438"
         stop-color="rgb(94.15741%, 44.667053%, 12.023926%)"
         stop-opacity="1"
         id="stop180" />
      <stop
         offset="0.65625"
         stop-color="rgb(94.180298%, 44.47937%, 12.04071%)"
         stop-opacity="1"
         id="stop181" />
      <stop
         offset="0.664062"
         stop-color="rgb(94.252014%, 44.296265%, 12.04834%)"
         stop-opacity="1"
         id="stop182" />
      <stop
         offset="0.671875"
         stop-color="rgb(94.33136%, 44.113159%, 12.052917%)"
         stop-opacity="1"
         id="stop183" />
      <stop
         offset="0.6875"
         stop-color="rgb(94.390869%, 43.896484%, 12.06665%)"
         stop-opacity="1"
         id="stop184" />
      <stop
         offset="0.703125"
         stop-color="rgb(94.403076%, 43.676758%, 12.088013%)"
         stop-opacity="1"
         id="stop185" />
      <stop
         offset="0.710938"
         stop-color="rgb(94.389343%, 43.490601%, 12.142944%)"
         stop-opacity="1"
         id="stop186" />
      <stop
         offset="0.71875"
         stop-color="rgb(94.374084%, 43.302917%, 12.232971%)"
         stop-opacity="1"
         id="stop187" />
      <stop
         offset="0.726563"
         stop-color="rgb(94.358826%, 43.106079%, 12.329102%)"
         stop-opacity="1"
         id="stop188" />
      <stop
         offset="0.734375"
         stop-color="rgb(94.343567%, 42.912292%, 12.411499%)"
         stop-opacity="1"
         id="stop189" />
      <stop
         offset="0.742188"
         stop-color="rgb(94.328308%, 42.720032%, 12.45575%)"
         stop-opacity="1"
         id="stop190" />
      <stop
         offset="0.75"
         stop-color="rgb(94.313049%, 42.530823%, 12.480164%)"
         stop-opacity="1"
         id="stop191" />
      <stop
         offset="0.765625"
         stop-color="rgb(94.294739%, 42.289734%, 12.510681%)"
         stop-opacity="1"
         id="stop192" />
      <stop
         offset="0.78125"
         stop-color="rgb(94.274902%, 42.048645%, 12.539673%)"
         stop-opacity="1"
         id="stop193" />
      <stop
         offset="0.796875"
         stop-color="rgb(94.255066%, 41.784668%, 12.623596%)"
         stop-opacity="1"
         id="stop194" />
      <stop
         offset="0.804688"
         stop-color="rgb(94.233704%, 41.519165%, 12.742615%)"
         stop-opacity="1"
         id="stop195" />
      <stop
         offset="0.8125"
         stop-color="rgb(94.218445%, 41.322327%, 12.835693%)"
         stop-opacity="1"
         id="stop196" />
      <stop
         offset="0.820313"
         stop-color="rgb(94.203186%, 41.130066%, 12.895203%)"
         stop-opacity="1"
         id="stop197" />
      <stop
         offset="0.828125"
         stop-color="rgb(94.187927%, 40.939331%, 12.919617%)"
         stop-opacity="1"
         id="stop198" />
      <stop
         offset="0.835938"
         stop-color="rgb(94.174194%, 40.748596%, 12.942505%)"
         stop-opacity="1"
         id="stop199" />
      <stop
         offset="0.84375"
         stop-color="rgb(94.184875%, 40.585327%, 12.957764%)"
         stop-opacity="1"
         id="stop200" />
      <stop
         offset="0.859375"
         stop-color="rgb(94.287109%, 40.422058%, 12.957764%)"
         stop-opacity="1"
         id="stop201" />
      <stop
         offset="0.875"
         stop-color="rgb(94.406128%, 40.190125%, 12.960815%)"
         stop-opacity="1"
         id="stop202" />
      <stop
         offset="0.882812"
         stop-color="rgb(94.430542%, 39.952087%, 12.982178%)"
         stop-opacity="1"
         id="stop203" />
      <stop
         offset="0.890625"
         stop-color="rgb(94.415283%, 39.759827%, 13.005066%)"
         stop-opacity="1"
         id="stop204" />
      <stop
         offset="0.898438"
         stop-color="rgb(94.400024%, 39.567566%, 13.047791%)"
         stop-opacity="1"
         id="stop205" />
      <stop
         offset="0.90625"
         stop-color="rgb(94.38324%, 39.372253%, 13.124084%)"
         stop-opacity="1"
         id="stop206" />
      <stop
         offset="0.914063"
         stop-color="rgb(94.367981%, 39.175415%, 13.217163%)"
         stop-opacity="1"
         id="stop207" />
      <stop
         offset="0.921875"
         stop-color="rgb(94.352722%, 38.98468%, 13.304138%)"
         stop-opacity="1"
         id="stop208" />
      <stop
         offset="0.9375"
         stop-color="rgb(94.337463%, 38.793945%, 13.35907%)"
         stop-opacity="1"
         id="stop209" />
      <stop
         offset="0.953125"
         stop-color="rgb(94.320679%, 38.574219%, 13.38501%)"
         stop-opacity="1"
         id="stop210" />
      <stop
         offset="0.960938"
         stop-color="rgb(94.302368%, 38.354492%, 13.412476%)"
         stop-opacity="1"
         id="stop211" />
      <stop
         offset="0.96875"
         stop-color="rgb(94.287109%, 38.163757%, 13.435364%)"
         stop-opacity="1"
         id="stop212" />
      <stop
         offset="0.976562"
         stop-color="rgb(94.271851%, 37.971497%, 13.46283%)"
         stop-opacity="1"
         id="stop213" />
      <stop
         offset="0.984375"
         stop-color="rgb(94.256592%, 37.77771%, 13.523865%)"
         stop-opacity="1"
         id="stop214" />
      <stop
         offset="0.992188"
         stop-color="rgb(94.241333%, 37.580872%, 13.613892%)"
         stop-opacity="1"
         id="stop215" />
      <stop
         offset="1"
         stop-color="rgb(94.226074%, 37.382507%, 13.703918%)"
         stop-opacity="1"
         id="stop216" />
    </linearGradient>
  </defs>
  <rect
     x="-200"
     y="-200"
     width="2400"
     height="2400"
     fill="rgb(100%, 100%, 100%)"
     fill-opacity="1"
     id="rect216" />
  <path
     fill-rule="nonzero"
     fill="rgb(20.133972%, 18.67981%, 19.041443%)"
     fill-opacity="1"
     d="M 554.574219 1423.058594 C 545.25 1427.871094 535.070312 1430.28125 524.042969 1430.28125 C 509.355469 1430.28125 498.007812 1425.980469 490 1417.378906 C 481.996094 1408.769531 477.992188 1396.550781 477.992188 1380.710938 C 477.992188 1364.921875 482.070312 1352.691406 490.226562 1344.019531 C 498.378906 1335.359375 509.886719 1331.019531 524.746094 1331.019531 C 533.175781 1331.019531 543.078125 1332.410156 554.445312 1335.179688 L 554.445312 1347.761719 C 541.5 1343.289062 531.515625 1341.050781 524.492188 1341.050781 C 514.230469 1341.050781 506.289062 1344.519531 500.667969 1351.460938 C 495.046875 1358.398438 492.238281 1368.199219 492.238281 1380.839844 C 492.238281 1392.929688 495.238281 1402.449219 501.242188 1409.390625 C 507.246094 1416.328125 515.464844 1419.800781 525.894531 1419.800781 C 534.796875 1419.800781 544.355469 1417.058594 554.574219 1411.558594 L 554.574219 1423.058594 "
     id="path216" />
  <path
     fill-rule="nonzero"
     fill="rgb(20.133972%, 18.67981%, 19.041443%)"
     fill-opacity="1"
     d="M 612.695312 1420.25 C 622.105469 1420.25 629.449219 1416.75 634.730469 1409.738281 C 640.007812 1402.738281 642.648438 1393 642.648438 1380.519531 C 642.648438 1368.128906 640.007812 1358.460938 634.730469 1351.488281 C 629.449219 1344.53125 622.105469 1341.050781 612.695312 1341.050781 C 603.285156 1341.050781 595.9375 1344.53125 590.660156 1351.488281 C 585.378906 1358.460938 582.738281 1368.128906 582.738281 1380.519531 C 582.738281 1393 585.378906 1402.738281 590.660156 1409.738281 C 595.9375 1416.75 603.285156 1420.25 612.695312 1420.25 Z M 612.695312 1430.28125 C 599.28125 1430.28125 588.5625 1425.769531 580.535156 1416.769531 C 572.511719 1407.761719 568.496094 1395.71875 568.496094 1380.648438 C 568.496094 1365.578125 572.511719 1353.539062 580.535156 1344.53125 C 588.5625 1335.53125 599.28125 1331.019531 612.695312 1331.019531 C 626.105469 1331.019531 636.828125 1335.53125 644.851562 1344.53125 C 652.878906 1353.539062 656.894531 1365.578125 656.894531 1380.648438 C 656.894531 1395.71875 652.878906 1407.761719 644.851562 1416.769531 C 636.828125 1425.769531 626.105469 1430.28125 612.695312 1430.28125 "
     id="path217" />
  <path
     fill-rule="nonzero"
     fill="rgb(20.133972%, 18.67981%, 19.041443%)"
     fill-opacity="1"
     d="M 675.671875 1427.910156 L 675.671875 1333.390625 L 694.179688 1333.390625 L 720.40625 1406.519531 L 747.351562 1333.390625 L 764.003906 1333.390625 L 764.003906 1427.910156 L 751.421875 1427.910156 L 751.421875 1351.128906 L 725.390625 1421.589844 L 712.433594 1421.589844 L 687.167969 1350.949219 L 687.167969 1427.910156 L 675.671875 1427.910156 "
     id="path218" />
  <path
     fill-rule="nonzero"
     fill="rgb(20.133972%, 18.67981%, 19.041443%)"
     fill-opacity="1"
     d="M 801.621094 1380.199219 L 807.050781 1380.199219 C 815.011719 1380.199219 821.164062 1378.371094 825.507812 1374.710938 C 829.851562 1371.050781 832.023438 1365.851562 832.023438 1359.128906 C 832.023438 1353.511719 830.308594 1349.480469 826.882812 1347.050781 C 823.453125 1344.628906 817.78125 1343.410156 809.859375 1343.410156 L 801.621094 1343.410156 Z M 788.335938 1427.910156 L 788.335938 1333.390625 L 814.074219 1333.390625 C 821.484375 1333.390625 827.199219 1333.988281 831.226562 1335.210938 C 835.246094 1336.421875 838.539062 1338.558594 841.09375 1341.628906 C 844.457031 1345.671875 846.136719 1351.191406 846.136719 1358.171875 C 846.136719 1368.21875 842.730469 1376.089844 835.917969 1381.800781 C 829.105469 1387.511719 819.652344 1390.359375 807.5625 1390.359375 L 801.621094 1390.359375 L 801.621094 1427.910156 L 788.335938 1427.910156 "
     id="path219" />
  <path
     fill-rule="nonzero"
     fill="rgb(20.133972%, 18.67981%, 19.041443%)"
     fill-opacity="1"
     d="M 876.226562 1391.761719 L 908.5625 1391.761719 L 892.414062 1350.949219 Z M 849.523438 1427.910156 L 887.015625 1333.390625 L 900.300781 1333.390625 L 937.214844 1427.910156 L 922.746094 1427.910156 L 912.476562 1401.789062 L 872.390625 1401.789062 L 861.960938 1427.910156 L 849.523438 1427.910156 "
     id="path220" />
  <path
     fill-rule="nonzero"
     fill="rgb(20.133972%, 18.67981%, 19.041443%)"
     fill-opacity="1"
     d="M 950.882812 1427.910156 L 950.882812 1333.390625 L 964.039062 1333.390625 L 1011.621094 1406.378906 L 1011.621094 1333.390625 L 1023.121094 1333.390625 L 1023.121094 1427.910156 L 1010.03125 1427.910156 L 962.382812 1354.941406 L 962.382812 1427.910156 L 950.882812 1427.910156 "
     id="path221" />
  <path
     fill-rule="nonzero"
     fill="rgb(20.133972%, 18.67981%, 19.041443%)"
     fill-opacity="1"
     d="M 1067.960938 1427.910156 L 1067.960938 1388.441406 L 1036.410156 1333.390625 L 1051.71875 1333.390625 L 1076.28125 1376.121094 L 1102.699219 1333.390625 L 1115.160156 1333.390625 L 1081.371094 1388.191406 L 1081.371094 1427.910156 L 1067.960938 1427.910156 "
     id="path222" />
  <path
     fill-rule="nonzero"
     fill="rgb(20.133972%, 18.67981%, 19.041443%)"
     fill-opacity="1"
     d="M 1170.398438 1427.910156 L 1170.398438 1333.390625 L 1183.558594 1333.390625 L 1231.140625 1406.378906 L 1231.140625 1333.390625 L 1242.640625 1333.390625 L 1242.640625 1427.910156 L 1229.550781 1427.910156 L 1181.898438 1354.941406 L 1181.898438 1427.910156 L 1170.398438 1427.910156 "
     id="path223" />
  <path
     fill-rule="nonzero"
     fill="rgb(20.133972%, 18.67981%, 19.041443%)"
     fill-opacity="1"
     d="M 1282.628906 1391.761719 L 1314.960938 1391.761719 L 1298.820312 1350.949219 Z M 1255.929688 1427.910156 L 1293.421875 1333.390625 L 1306.699219 1333.390625 L 1343.621094 1427.910156 L 1329.148438 1427.910156 L 1318.878906 1401.789062 L 1278.789062 1401.789062 L 1268.359375 1427.910156 L 1255.929688 1427.910156 "
     id="path224" />
  <path
     fill-rule="nonzero"
     fill="rgb(20.133972%, 18.67981%, 19.041443%)"
     fill-opacity="1"
     d="M 1357.289062 1427.910156 L 1357.289062 1333.390625 L 1375.800781 1333.390625 L 1402.019531 1406.519531 L 1428.96875 1333.390625 L 1445.621094 1333.390625 L 1445.621094 1427.910156 L 1433.039062 1427.910156 L 1433.039062 1351.128906 L 1407.011719 1421.589844 L 1394.050781 1421.589844 L 1368.78125 1350.949219 L 1368.78125 1427.910156 L 1357.289062 1427.910156 "
     id="path225" />
  <path
     fill-rule="nonzero"
     fill="rgb(20.133972%, 18.67981%, 19.041443%)"
     fill-opacity="1"
     d="M 1469.949219 1427.910156 L 1469.949219 1333.390625 L 1522.769531 1333.390625 L 1522.769531 1343.410156 L 1483.359375 1343.410156 L 1483.359375 1373.75 L 1516.390625 1373.75 L 1516.390625 1383.648438 L 1483.359375 1383.648438 L 1483.359375 1417.890625 L 1525.519531 1417.890625 L 1525.519531 1427.910156 L 1469.949219 1427.910156 "
     id="path226" />
  <path
     fill-rule="nonzero"
     fill="rgb(30.917358%, 29.660034%, 29.972839%)"
     fill-opacity="1"
     d="M 784.527344 1468.511719 L 772.144531 1468.511719 L 772.144531 1464.039062 L 802.28125 1464.039062 L 802.28125 1468.511719 L 789.84375 1468.511719 L 789.84375 1504.75 L 784.527344 1504.75 L 784.527344 1468.511719 "
     id="path227" />
  <path
     fill-rule="nonzero"
     fill="rgb(30.917358%, 29.660034%, 29.972839%)"
     fill-opacity="1"
     d="M 831.550781 1487.839844 L 827.5625 1476.121094 C 826.65625 1473.460938 826.054688 1471.050781 825.449219 1468.691406 L 825.328125 1468.691406 C 824.726562 1471.109375 824.058594 1473.578125 823.273438 1476.058594 L 819.289062 1487.839844 Z M 818.203125 1491.941406 L 813.976562 1504.75 L 808.539062 1504.75 L 822.367188 1464.039062 L 828.710938 1464.039062 L 842.601562 1504.75 L 836.984375 1504.75 L 832.636719 1491.941406 L 818.203125 1491.941406 "
     id="path228" />
  <path
     fill-rule="nonzero"
     fill="rgb(30.917358%, 29.660034%, 29.972839%)"
     fill-opacity="1"
     d="M 888.925781 1502.941406 C 886.570312 1503.78125 881.921875 1505.171875 876.425781 1505.171875 C 870.265625 1505.171875 865.191406 1503.601562 861.207031 1499.800781 C 857.703125 1496.410156 855.527344 1490.980469 855.527344 1484.640625 C 855.589844 1472.5 863.925781 1463.621094 877.574219 1463.621094 C 882.28125 1463.621094 885.96875 1464.648438 887.71875 1465.488281 L 886.449219 1469.78125 C 884.277344 1468.808594 881.558594 1468.03125 877.453125 1468.03125 C 867.546875 1468.03125 861.085938 1474.191406 861.085938 1484.398438 C 861.085938 1494.71875 867.304688 1500.820312 876.789062 1500.820312 C 880.230469 1500.820312 882.585938 1500.339844 883.792969 1499.730469 L 883.792969 1487.601562 L 875.519531 1487.601562 L 875.519531 1483.371094 L 888.925781 1483.371094 L 888.925781 1502.941406 "
     id="path229" />
  <path
     fill-rule="nonzero"
     fill="rgb(30.917358%, 29.660034%, 29.972839%)"
     fill-opacity="1"
     d="M 906.296875 1464.039062 L 911.550781 1464.039062 L 911.550781 1500.339844 L 928.945312 1500.339844 L 928.945312 1504.75 L 906.296875 1504.75 L 906.296875 1464.039062 "
     id="path230" />
  <path
     fill-rule="nonzero"
     fill="rgb(30.917358%, 29.660034%, 29.972839%)"
     fill-opacity="1"
     d="M 949.394531 1464.039062 L 949.394531 1504.75 L 944.136719 1504.75 L 944.136719 1464.039062 L 949.394531 1464.039062 "
     id="path231" />
  <path
     fill-rule="nonzero"
     fill="rgb(30.917358%, 29.660034%, 29.972839%)"
     fill-opacity="1"
     d="M 968.84375 1504.75 L 968.84375 1464.039062 L 974.578125 1464.039062 L 987.625 1484.640625 C 990.644531 1489.410156 993 1493.699219 994.929688 1497.859375 L 995.050781 1497.800781 C 994.570312 1492.371094 994.449219 1487.410156 994.449219 1481.070312 L 994.449219 1464.039062 L 999.402344 1464.039062 L 999.402344 1504.75 L 994.085938 1504.75 L 981.160156 1484.089844 C 978.324219 1479.558594 975.605469 1474.910156 973.550781 1470.5 L 973.371094 1470.558594 C 973.671875 1475.699219 973.792969 1480.589844 973.792969 1487.351562 L 973.792969 1504.75 L 968.84375 1504.75 "
     id="path232" />
  <path
     fill-rule="nonzero"
     fill="rgb(30.917358%, 29.660034%, 29.972839%)"
     fill-opacity="1"
     d="M 1039.929688 1485.660156 L 1024.109375 1485.660156 L 1024.109375 1500.339844 L 1041.738281 1500.339844 L 1041.738281 1504.75 L 1018.851562 1504.75 L 1018.851562 1464.039062 L 1040.828125 1464.039062 L 1040.828125 1468.449219 L 1024.109375 1468.449219 L 1024.109375 1481.308594 L 1039.929688 1481.308594 L 1039.929688 1485.660156 "
     id="path233" />
  <path
     fill-rule="nonzero"
     fill="rgb(30.917358%, 29.660034%, 29.972839%)"
     fill-opacity="1"
     d="M 1076.890625 1464.039062 L 1076.890625 1481.070312 L 1096.578125 1481.070312 L 1096.578125 1464.039062 L 1101.898438 1464.039062 L 1101.898438 1504.75 L 1096.578125 1504.75 L 1096.578125 1485.660156 L 1076.890625 1485.660156 L 1076.890625 1504.75 L 1071.640625 1504.75 L 1071.640625 1464.039062 L 1076.890625 1464.039062 "
     id="path234" />
  <path
     fill-rule="nonzero"
     fill="rgb(30.917358%, 29.660034%, 29.972839%)"
     fill-opacity="1"
     d="M 1142.359375 1485.660156 L 1126.539062 1485.660156 L 1126.539062 1500.339844 L 1144.171875 1500.339844 L 1144.171875 1504.75 L 1121.289062 1504.75 L 1121.289062 1464.039062 L 1143.269531 1464.039062 L 1143.269531 1468.449219 L 1126.539062 1468.449219 L 1126.539062 1481.308594 L 1142.359375 1481.308594 L 1142.359375 1485.660156 "
     id="path235" />
  <path
     fill-rule="nonzero"
     fill="rgb(30.917358%, 29.660034%, 29.972839%)"
     fill-opacity="1"
     d="M 1167.460938 1483.128906 L 1172.828125 1483.128906 C 1178.449219 1483.128906 1182.011719 1480.050781 1182.011719 1475.398438 C 1182.011719 1470.140625 1178.210938 1467.851562 1172.648438 1467.789062 C 1170.109375 1467.789062 1168.300781 1468.03125 1167.460938 1468.269531 Z M 1162.199219 1464.589844 C 1164.859375 1464.039062 1168.660156 1463.738281 1172.289062 1463.738281 C 1177.898438 1463.738281 1181.53125 1464.769531 1184.058594 1467.058594 C 1186.121094 1468.871094 1187.269531 1471.648438 1187.269531 1474.789062 C 1187.269531 1480.171875 1183.878906 1483.730469 1179.601562 1485.179688 L 1179.601562 1485.359375 C 1182.738281 1486.449219 1184.609375 1489.351562 1185.570312 1493.570312 C 1186.898438 1499.25 1187.871094 1503.179688 1188.71875 1504.75 L 1183.28125 1504.75 C 1182.621094 1503.601562 1181.710938 1500.101562 1180.558594 1495.019531 C 1179.351562 1489.410156 1177.179688 1487.289062 1172.410156 1487.109375 L 1167.460938 1487.109375 L 1167.460938 1504.75 L 1162.199219 1504.75 L 1162.199219 1464.589844 "
     id="path236" />
  <path
     fill-rule="nonzero"
     fill="rgb(30.917358%, 29.660034%, 29.972839%)"
     fill-opacity="1"
     d="M 1226.039062 1485.660156 L 1210.21875 1485.660156 L 1210.21875 1500.339844 L 1227.851562 1500.339844 L 1227.851562 1504.75 L 1204.960938 1504.75 L 1204.960938 1464.039062 L 1226.949219 1464.039062 L 1226.949219 1468.449219 L 1210.21875 1468.449219 L 1210.21875 1481.308594 L 1226.039062 1481.308594 L 1226.039062 1485.660156 "
     id="path237" />
  <path
     fill-rule="nonzero"
     fill="rgb(65.501404%, 64.872742%, 65.028381%)"
     fill-opacity="1"
     d="M 751.503906 1468.21875 L 474.480469 1468.21875 L 474.480469 1463.671875 L 751.503906 1463.671875 L 751.503906 1468.21875 "
     id="path238" />
  <path
     fill-rule="nonzero"
     fill="rgb(65.501404%, 64.872742%, 65.028381%)"
     fill-opacity="1"
     d="M 751.503906 1486.671875 L 474.480469 1486.671875 L 474.480469 1482.121094 L 751.503906 1482.121094 L 751.503906 1486.671875 "
     id="path239" />
  <path
     fill-rule="nonzero"
     fill="rgb(65.501404%, 64.872742%, 65.028381%)"
     fill-opacity="1"
     d="M 751.503906 1505.121094 L 474.480469 1505.121094 L 474.480469 1500.570312 L 751.503906 1500.570312 L 751.503906 1505.121094 "
     id="path240" />
  <path
     fill-rule="nonzero"
     fill="rgb(65.501404%, 64.872742%, 65.028381%)"
     fill-opacity="1"
     d="M 1525.519531 1468.21875 L 1248.5 1468.21875 L 1248.5 1463.671875 L 1525.519531 1463.671875 L 1525.519531 1468.21875 "
     id="path241" />
  <path
     fill-rule="nonzero"
     fill="rgb(65.501404%, 64.872742%, 65.028381%)"
     fill-opacity="1"
     d="M 1525.519531 1486.671875 L 1248.5 1486.671875 L 1248.5 1482.121094 L 1525.519531 1482.121094 L 1525.519531 1486.671875 "
     id="path242" />
  <path
     fill-rule="nonzero"
     fill="rgb(65.501404%, 64.872742%, 65.028381%)"
     fill-opacity="1"
     d="M 1525.519531 1505.121094 L 1248.5 1505.121094 L 1248.5 1500.570312 L 1525.519531 1500.570312 L 1525.519531 1505.121094 "
     id="path243" />
  <g
     id="g250">
    <g
       clip-path="url(#clip-0)"
       id="g246"
       transform="translate(-68.839844,-204.91109)">
      <g
         clip-path="url(#clip-1)"
         id="g245">
        <g
           clip-path="url(#clip-2)"
           id="g244">
          <path
             fill-rule="nonzero"
             fill="url(#linear-pattern-0)"
             d="m 1629.2578,625.76172 -942.22655,-412 -391.86719,896.18748 942.22264,412 z m 0,0"
             id="path244"
             style="fill:url(#linear-pattern-0)" />
        </g>
      </g>
    </g>
    <g
       clip-path="url(#clip-3)"
       id="g249"
       transform="translate(-68.839844,-204.91109)">
      <g
         clip-path="url(#clip-4)"
         id="g248">
        <g
           clip-path="url(#clip-5)"
           id="g247">
          <path
             fill-rule="nonzero"
             fill="url(#linear-pattern-1)"
             d="M 1489.4219,498 843.5,453.81641 l -49.15625,718.63279 645.92185,44.1836 z m 0,0"
             id="path246"
             style="fill:url(#linear-pattern-1)" />
        </g>
      </g>
    </g>
  </g>
</svg>
